M48
; DRILL file {KiCad (5.1.10-1-10_14)} date Sunday, August 15, 2021 at 08:20:46 PM
; FORMAT={-:-/ absolute / inch / decimal}
; #@! TF.CreationDate,2021-08-15T20:20:46+09:00
; #@! TF.GenerationSoftware,Kicad,Pcbnew,(5.1.10-1-10_14)
; #@! TF.FileFunction,Plated,1,2,PTH
FMAT,2
INCH
T1C0.0157
T2C0.0300
T3C0.0354
T4C0.0394
T5C0.0402
T6C0.0591
%
G90
G05
T1
X3.3Y-4.9
X3.4Y-4.65
X3.55Y-4.0
X3.55Y-4.6
X3.6Y-3.05
X3.8Y-2.85
X3.9Y-2.75
X3.95Y-3.7
X4.1Y-3.1
X4.2Y-2.85
X4.3Y-2.95
X4.35Y-3.15
X4.4Y-4.45
X4.4Y-5.45
X4.4Y-5.55
X4.5Y-5.25
X4.7Y-5.0
X4.75Y-5.45
X4.85Y-4.05
T2
X3.15Y-4.5
X3.35Y-4.5
X3.45Y-4.2
X3.45Y-4.8
X3.65Y-4.2
X3.65Y-4.8
X3.75Y-4.5
X3.95Y-4.5
X4.4Y-4.6
X4.6Y-4.6
X4.85Y-4.4
X5.05Y-4.4
T3
X4.7Y-5.3
X4.8575Y-5.3
X5.1Y-3.6175
X5.1Y-3.6963
X5.1Y-3.775
T4
X3.8Y-2.3
X3.9Y-2.3
X4.0Y-2.3
X4.1Y-2.3
X4.2Y-2.3
X4.3Y-2.3
X4.4Y-2.3
X4.5Y-2.3
X4.5Y-5.45
X4.5Y-5.55
T5
X3.25Y-2.6
X3.25Y-3.3
X3.2591Y-2.85
X3.2591Y-2.95
X3.2591Y-3.05
X3.35Y-2.6
X3.35Y-3.3
X3.415Y-5.035
X3.415Y-5.585
X3.45Y-2.6
X3.45Y-3.3
X3.55Y-2.6
X3.55Y-3.3
X3.65Y-2.6
X3.65Y-3.3
X3.75Y-2.6
X3.75Y-3.3
X3.85Y-2.6
X3.85Y-3.3
X3.95Y-2.6
X3.95Y-3.3
X4.05Y-2.6
X4.05Y-3.3
X4.15Y-2.6
X4.15Y-3.3
X4.25Y-2.6
X4.25Y-3.3
X4.315Y-5.035
X4.315Y-5.15
X4.315Y-5.47
X4.315Y-5.585
X4.35Y-2.6
X4.35Y-3.3
X4.45Y-2.6
X4.45Y-3.3
X4.55Y-2.6
X4.55Y-3.3
X4.65Y-2.6
X4.65Y-3.3
X4.75Y-2.6
X4.75Y-3.3
X4.85Y-2.6
X4.85Y-3.3
X4.95Y-2.6
X4.95Y-3.3
X5.05Y-2.6
X5.05Y-3.3
X5.15Y-2.6
X5.15Y-3.3
T6
X5.1Y-3.5348
X5.1Y-3.8577
T0
M30
