%TF.GenerationSoftware,KiCad,Pcbnew,(5.1.10-1-10_14)*%
%TF.CreationDate,2021-08-15T20:20:53+09:00*%
%TF.ProjectId,gamejoy,67616d65-6a6f-4792-9e6b-696361645f70,rev?*%
%TF.SameCoordinates,Original*%
%TF.FileFunction,Copper,L2,Bot*%
%TF.FilePolarity,Positive*%
%FSLAX46Y46*%
G04 Gerber Fmt 4.6, Leading zero omitted, Abs format (unit mm)*
G04 Created by KiCad (PCBNEW (5.1.10-1-10_14)) date 2021-08-15 20:20:53*
%MOMM*%
%LPD*%
G01*
G04 APERTURE LIST*
%TA.AperFunction,ComponentPad*%
%ADD10R,1.700000X1.700000*%
%TD*%
%TA.AperFunction,ComponentPad*%
%ADD11O,1.700000X1.700000*%
%TD*%
%TA.AperFunction,ComponentPad*%
%ADD12R,1.600000X1.600000*%
%TD*%
%TA.AperFunction,ComponentPad*%
%ADD13C,1.600000*%
%TD*%
%TA.AperFunction,ComponentPad*%
%ADD14C,1.524000*%
%TD*%
%TA.AperFunction,ComponentPad*%
%ADD15R,2.500000X1.500000*%
%TD*%
%TA.AperFunction,ComponentPad*%
%ADD16O,2.500000X1.500000*%
%TD*%
%TA.AperFunction,ComponentPad*%
%ADD17O,3.500000X2.200000*%
%TD*%
%TA.AperFunction,SMDPad,CuDef*%
%ADD18R,1.700000X3.500000*%
%TD*%
%TA.AperFunction,SMDPad,CuDef*%
%ADD19R,3.500000X1.700000*%
%TD*%
%TA.AperFunction,ComponentPad*%
%ADD20R,1.524000X1.524000*%
%TD*%
%TA.AperFunction,ViaPad*%
%ADD21C,0.800000*%
%TD*%
%TA.AperFunction,Conductor*%
%ADD22C,0.250000*%
%TD*%
%TA.AperFunction,Conductor*%
%ADD23C,0.254000*%
%TD*%
%TA.AperFunction,Conductor*%
%ADD24C,0.100000*%
%TD*%
G04 APERTURE END LIST*
D10*
%TO.P,BT1,1*%
%TO.N,Net-(BT1-Pad1)*%
X114300000Y-138430000D03*
D11*
%TO.P,BT1,2*%
%TO.N,Net-(BT1-Pad2)*%
X114300000Y-140970000D03*
%TD*%
D12*
%TO.P,BZ1,1*%
%TO.N,Net-(BZ1-Pad1)*%
X119380000Y-134620000D03*
D13*
%TO.P,BZ1,2*%
%TO.N,Net-(BZ1-Pad2)*%
X123380000Y-134620000D03*
%TD*%
D14*
%TO.P,SW1,2*%
%TO.N,Net-(SW1-Pad2)*%
X85090000Y-114300000D03*
%TO.P,SW1,1*%
%TO.N,Net-(SW1-Pad1)*%
X80010000Y-114300000D03*
%TD*%
%TO.P,SW2,1*%
%TO.N,Net-(SW1-Pad1)*%
X87630000Y-106680000D03*
%TO.P,SW2,2*%
%TO.N,Net-(SW2-Pad2)*%
X92710000Y-106680000D03*
%TD*%
%TO.P,SW3,1*%
%TO.N,Net-(SW1-Pad1)*%
X87630000Y-121920000D03*
%TO.P,SW3,2*%
%TO.N,Net-(SW3-Pad2)*%
X92710000Y-121920000D03*
%TD*%
%TO.P,SW4,2*%
%TO.N,Net-(SW4-Pad2)*%
X100330000Y-114300000D03*
%TO.P,SW4,1*%
%TO.N,Net-(SW1-Pad1)*%
X95250000Y-114300000D03*
%TD*%
%TO.P,SW5,1*%
%TO.N,Net-(SW5-Pad1)*%
X111760000Y-116840000D03*
%TO.P,SW5,2*%
%TO.N,Net-(SW1-Pad1)*%
X116840000Y-116840000D03*
%TD*%
%TO.P,SW6,2*%
%TO.N,Net-(SW1-Pad1)*%
X128270000Y-111760000D03*
%TO.P,SW6,1*%
%TO.N,Net-(SW6-Pad1)*%
X123190000Y-111760000D03*
%TD*%
D15*
%TO.P,SW7,1*%
%TO.N,Net-(SW7-Pad1)*%
X129540000Y-95885000D03*
D16*
%TO.P,SW7,2*%
%TO.N,Net-(SW7-Pad2)*%
X129540000Y-93885000D03*
%TO.P,SW7,3*%
%TO.N,Net-(SW7-Pad3)*%
X129540000Y-91885000D03*
D17*
%TO.P,SW7,*%
%TO.N,*%
X129540000Y-97985000D03*
X129540000Y-89785000D03*
%TD*%
D11*
%TO.P,U1,1*%
%TO.N,Net-(U1-Pad1)*%
X130810000Y-83820000D03*
%TO.P,U1,2*%
%TO.N,Net-(U1-Pad2)*%
X128270000Y-83820000D03*
D10*
%TO.P,U1,3*%
%TO.N,Net-(U1-Pad3)*%
X125730000Y-83820000D03*
D11*
%TO.P,U1,4*%
%TO.N,Net-(SW6-Pad1)*%
X123190000Y-83820000D03*
%TO.P,U1,5*%
%TO.N,Net-(SW5-Pad1)*%
X120650000Y-83820000D03*
%TO.P,U1,6*%
%TO.N,Net-(U1-Pad6)*%
X118110000Y-83820000D03*
%TO.P,U1,7*%
%TO.N,Net-(U1-Pad7)*%
X115570000Y-83820000D03*
D10*
%TO.P,U1,8*%
%TO.N,Net-(U1-Pad8)*%
X113030000Y-83820000D03*
D11*
%TO.P,U1,9*%
%TO.N,Net-(U1-Pad9)*%
X110490000Y-83820000D03*
%TO.P,U1,10*%
%TO.N,Net-(U1-Pad10)*%
X107950000Y-83820000D03*
%TO.P,U1,11*%
%TO.N,Net-(BZ1-Pad1)*%
X105410000Y-83820000D03*
%TO.P,U1,12*%
%TO.N,Net-(BZ1-Pad2)*%
X102870000Y-83820000D03*
D10*
%TO.P,U1,13*%
%TO.N,Net-(U1-Pad13)*%
X100330000Y-83820000D03*
D11*
%TO.P,U1,14*%
%TO.N,Net-(SW4-Pad2)*%
X97790000Y-83820000D03*
%TO.P,U1,15*%
%TO.N,Net-(SW1-Pad2)*%
X95250000Y-83820000D03*
%TO.P,U1,16*%
%TO.N,Net-(SW3-Pad2)*%
X92710000Y-83820000D03*
%TO.P,U1,17*%
%TO.N,Net-(SW2-Pad2)*%
X90170000Y-83820000D03*
D10*
%TO.P,U1,18*%
%TO.N,Net-(U1-Pad18)*%
X87630000Y-83820000D03*
D11*
%TO.P,U1,19*%
%TO.N,Net-(U1-Pad19)*%
X85090000Y-83820000D03*
%TO.P,U1,20*%
%TO.N,Net-(U1-Pad20)*%
X82550000Y-83820000D03*
%TO.P,U1,21*%
%TO.N,Net-(U1-Pad21)*%
X82550000Y-66040000D03*
%TO.P,U1,22*%
%TO.N,Net-(U1-Pad22)*%
X85090000Y-66040000D03*
D10*
%TO.P,U1,23*%
%TO.N,Net-(U1-Pad23)*%
X87630000Y-66040000D03*
D11*
%TO.P,U1,24*%
%TO.N,Net-(U1-Pad24)*%
X90170000Y-66040000D03*
%TO.P,U1,25*%
%TO.N,Net-(U1-Pad25)*%
X92710000Y-66040000D03*
%TO.P,U1,26*%
%TO.N,Net-(U1-Pad26)*%
X95250000Y-66040000D03*
%TO.P,U1,27*%
%TO.N,Net-(U1-Pad27)*%
X97790000Y-66040000D03*
D10*
%TO.P,U1,28*%
%TO.N,Net-(U1-Pad28)*%
X100330000Y-66040000D03*
D11*
%TO.P,U1,29*%
%TO.N,Net-(U1-Pad29)*%
X102870000Y-66040000D03*
%TO.P,U1,30*%
%TO.N,Net-(U1-Pad30)*%
X105410000Y-66040000D03*
%TO.P,U1,31*%
%TO.N,Net-(U1-Pad31)*%
X107950000Y-66040000D03*
%TO.P,U1,32*%
%TO.N,Net-(U1-Pad32)*%
X110490000Y-66040000D03*
D10*
%TO.P,U1,33*%
%TO.N,Net-(U1-Pad33)*%
X113030000Y-66040000D03*
D11*
%TO.P,U1,34*%
%TO.N,Net-(U1-Pad34)*%
X115570000Y-66040000D03*
%TO.P,U1,35*%
%TO.N,Net-(U1-Pad35)*%
X118110000Y-66040000D03*
%TO.P,U1,36*%
%TO.N,Net-(U1-Pad36)*%
X120650000Y-66040000D03*
%TO.P,U1,37*%
%TO.N,Net-(U1-Pad37)*%
X123190000Y-66040000D03*
D10*
%TO.P,U1,38*%
%TO.N,Net-(SW1-Pad1)*%
X125730000Y-66040000D03*
D11*
%TO.P,U1,39*%
%TO.N,Net-(SW7-Pad2)*%
X128270000Y-66040000D03*
%TO.P,U1,40*%
%TO.N,Net-(U1-Pad40)*%
X130810000Y-66040000D03*
D18*
%TO.P,U1,1*%
%TO.N,Net-(U1-Pad1)*%
X130810000Y-84720000D03*
%TO.P,U1,2*%
%TO.N,Net-(U1-Pad2)*%
X128270000Y-84720000D03*
%TO.P,U1,3*%
%TO.N,Net-(U1-Pad3)*%
X125730000Y-84720000D03*
%TO.P,U1,4*%
%TO.N,Net-(SW6-Pad1)*%
X123190000Y-84720000D03*
%TO.P,U1,5*%
%TO.N,Net-(SW5-Pad1)*%
X120650000Y-84720000D03*
%TO.P,U1,6*%
%TO.N,Net-(U1-Pad6)*%
X118110000Y-84720000D03*
%TO.P,U1,7*%
%TO.N,Net-(U1-Pad7)*%
X115570000Y-84720000D03*
%TO.P,U1,8*%
%TO.N,Net-(U1-Pad8)*%
X113030000Y-84720000D03*
%TO.P,U1,9*%
%TO.N,Net-(U1-Pad9)*%
X110490000Y-84720000D03*
%TO.P,U1,10*%
%TO.N,Net-(U1-Pad10)*%
X107950000Y-84720000D03*
%TO.P,U1,11*%
%TO.N,Net-(BZ1-Pad1)*%
X105410000Y-84720000D03*
%TO.P,U1,12*%
%TO.N,Net-(BZ1-Pad2)*%
X102870000Y-84720000D03*
%TO.P,U1,13*%
%TO.N,Net-(U1-Pad13)*%
X100330000Y-84720000D03*
%TO.P,U1,14*%
%TO.N,Net-(SW4-Pad2)*%
X97790000Y-84720000D03*
%TO.P,U1,15*%
%TO.N,Net-(SW1-Pad2)*%
X95250000Y-84720000D03*
%TO.P,U1,16*%
%TO.N,Net-(SW3-Pad2)*%
X92710000Y-84720000D03*
%TO.P,U1,17*%
%TO.N,Net-(SW2-Pad2)*%
X90170000Y-84720000D03*
%TO.P,U1,18*%
%TO.N,Net-(U1-Pad18)*%
X87630000Y-84720000D03*
%TO.P,U1,19*%
%TO.N,Net-(U1-Pad19)*%
X85090000Y-84720000D03*
%TO.P,U1,20*%
%TO.N,Net-(U1-Pad20)*%
X82550000Y-84720000D03*
%TO.P,U1,40*%
%TO.N,Net-(U1-Pad40)*%
X130810000Y-65140000D03*
%TO.P,U1,39*%
%TO.N,Net-(SW7-Pad2)*%
X128270000Y-65140000D03*
%TO.P,U1,38*%
%TO.N,Net-(SW1-Pad1)*%
X125730000Y-65140000D03*
%TO.P,U1,37*%
%TO.N,Net-(U1-Pad37)*%
X123190000Y-65140000D03*
%TO.P,U1,36*%
%TO.N,Net-(U1-Pad36)*%
X120650000Y-65140000D03*
%TO.P,U1,35*%
%TO.N,Net-(U1-Pad35)*%
X118110000Y-65140000D03*
%TO.P,U1,34*%
%TO.N,Net-(U1-Pad34)*%
X115570000Y-65140000D03*
%TO.P,U1,33*%
%TO.N,Net-(U1-Pad33)*%
X113030000Y-65140000D03*
%TO.P,U1,32*%
%TO.N,Net-(U1-Pad32)*%
X110490000Y-65140000D03*
%TO.P,U1,31*%
%TO.N,Net-(U1-Pad31)*%
X107950000Y-65140000D03*
%TO.P,U1,30*%
%TO.N,Net-(U1-Pad30)*%
X105410000Y-65140000D03*
%TO.P,U1,29*%
%TO.N,Net-(U1-Pad29)*%
X102870000Y-65140000D03*
%TO.P,U1,28*%
%TO.N,Net-(U1-Pad28)*%
X100330000Y-65140000D03*
%TO.P,U1,27*%
%TO.N,Net-(U1-Pad27)*%
X97790000Y-65140000D03*
%TO.P,U1,26*%
%TO.N,Net-(U1-Pad26)*%
X95250000Y-65140000D03*
%TO.P,U1,25*%
%TO.N,Net-(U1-Pad25)*%
X92710000Y-65140000D03*
%TO.P,U1,24*%
%TO.N,Net-(U1-Pad24)*%
X90170000Y-65140000D03*
%TO.P,U1,23*%
%TO.N,Net-(U1-Pad23)*%
X87630000Y-65140000D03*
%TO.P,U1,22*%
%TO.N,Net-(U1-Pad22)*%
X85090000Y-65140000D03*
%TO.P,U1,21*%
%TO.N,Net-(U1-Pad21)*%
X82550000Y-65140000D03*
D19*
%TO.P,U1,41*%
%TO.N,Net-(U1-Pad41)*%
X81880000Y-77470000D03*
D11*
X82780000Y-77470000D03*
D19*
%TO.P,U1,42*%
%TO.N,Net-(U1-Pad42)*%
X81880000Y-74930000D03*
D10*
X82780000Y-74930000D03*
D19*
%TO.P,U1,43*%
%TO.N,Net-(U1-Pad43)*%
X81880000Y-72390000D03*
D11*
X82780000Y-72390000D03*
%TD*%
D10*
%TO.P,U2,1*%
%TO.N,Net-(SW1-Pad1)*%
X96520000Y-58420000D03*
D11*
%TO.P,U2,2*%
%TO.N,Net-(U1-Pad36)*%
X99060000Y-58420000D03*
%TO.P,U2,3*%
%TO.N,Net-(U1-Pad24)*%
X101600000Y-58420000D03*
%TO.P,U2,4*%
%TO.N,Net-(U1-Pad25)*%
X104140000Y-58420000D03*
%TO.P,U2,5*%
%TO.N,Net-(U1-Pad27)*%
X106680000Y-58420000D03*
%TO.P,U2,6*%
%TO.N,Net-(U1-Pad26)*%
X109220000Y-58420000D03*
%TO.P,U2,7*%
%TO.N,Net-(U1-Pad22)*%
X111760000Y-58420000D03*
%TO.P,U2,8*%
%TO.N,Net-(U2-Pad8)*%
X114300000Y-58420000D03*
%TD*%
D20*
%TO.P,U3,5*%
%TO.N,Net-(U1-Pad40)*%
X86741000Y-127889000D03*
%TO.P,U3,6*%
%TO.N,Net-(SW1-Pad1)*%
X86741000Y-141859000D03*
%TO.P,U3,4*%
X109601000Y-141859000D03*
%TO.P,U3,3*%
%TO.N,Net-(SW7-Pad1)*%
X109601000Y-127889000D03*
%TO.P,U3,2*%
%TO.N,Net-(BT1-Pad2)*%
X109601000Y-138938000D03*
%TO.P,U3,1*%
%TO.N,Net-(BT1-Pad1)*%
X109601000Y-130810000D03*
%TD*%
D21*
%TO.N,Net-(BT1-Pad1)*%
X111760000Y-138430000D03*
%TO.N,Net-(BT1-Pad2)*%
X111760000Y-140970000D03*
%TO.N,Net-(BZ1-Pad1)*%
X114300000Y-133350000D03*
%TO.N,Net-(BZ1-Pad2)*%
X120650000Y-138430000D03*
%TO.N,Net-(SW1-Pad2)*%
X90170000Y-116840000D03*
%TO.N,Net-(SW1-Pad1)*%
X96520000Y-72390000D03*
%TO.N,Net-(SW2-Pad2)*%
X90170000Y-101600000D03*
%TO.N,Net-(SW3-Pad2)*%
X86360000Y-118110000D03*
%TO.N,Net-(SW4-Pad2)*%
X100330000Y-93980000D03*
%TO.N,Net-(SW5-Pad1)*%
X111760000Y-113030000D03*
%TO.N,Net-(SW6-Pad1)*%
X123190000Y-102870000D03*
%TO.N,Net-(SW7-Pad1)*%
X119380000Y-127000000D03*
%TO.N,Net-(U1-Pad22)*%
X110490000Y-80010000D03*
%TO.N,Net-(U1-Pad24)*%
X91440000Y-77470000D03*
%TO.N,Net-(U1-Pad25)*%
X104140000Y-78740000D03*
%TO.N,Net-(U1-Pad26)*%
X109220000Y-74930000D03*
%TO.N,Net-(U1-Pad27)*%
X106680000Y-72390000D03*
%TO.N,Net-(U1-Pad36)*%
X99060000Y-69850000D03*
%TO.N,Net-(U1-Pad40)*%
X83820000Y-124460000D03*
%TD*%
D22*
%TO.N,Net-(BT1-Pad1)*%
X111760000Y-132969000D02*
X109601000Y-130810000D01*
X111760000Y-138430000D02*
X111760000Y-132969000D01*
%TO.N,Net-(BT1-Pad2)*%
X109728000Y-138938000D02*
X109601000Y-138938000D01*
X111760000Y-140970000D02*
X109728000Y-138938000D01*
%TO.N,Net-(BZ1-Pad1)*%
X118110000Y-133350000D02*
X119380000Y-134620000D01*
X114300000Y-133350000D02*
X118110000Y-133350000D01*
%TO.N,Net-(BZ1-Pad2)*%
X120650000Y-138430000D02*
X121920000Y-138430000D01*
X123380000Y-136970000D02*
X123380000Y-134620000D01*
X121920000Y-138430000D02*
X123380000Y-136970000D01*
%TO.N,Net-(SW1-Pad2)*%
X87630000Y-114300000D02*
X85090000Y-114300000D01*
X90170000Y-116840000D02*
X87630000Y-114300000D01*
%TO.N,Net-(SW1-Pad1)*%
X96520000Y-58420000D02*
X96520000Y-72390000D01*
X86741000Y-141859000D02*
X85979000Y-141859000D01*
X95250000Y-114300000D02*
X90170000Y-114300000D01*
X87630000Y-111760000D02*
X87630000Y-106680000D01*
X90170000Y-114300000D02*
X87630000Y-111760000D01*
X95250000Y-121920000D02*
X95250000Y-114300000D01*
X116840000Y-124460000D02*
X97790000Y-124460000D01*
X97790000Y-124460000D02*
X95250000Y-121920000D01*
X116840000Y-116840000D02*
X116840000Y-124460000D01*
X121920000Y-124460000D02*
X116840000Y-124460000D01*
X128270000Y-118110000D02*
X121920000Y-124460000D01*
X128270000Y-111760000D02*
X128270000Y-118110000D01*
X109601000Y-141859000D02*
X98679000Y-141859000D01*
X98679000Y-141859000D02*
X95250000Y-138430000D01*
X95250000Y-138430000D02*
X95250000Y-121920000D01*
X86741000Y-137541000D02*
X86741000Y-141859000D01*
X82550000Y-133350000D02*
X86741000Y-137541000D01*
X80010000Y-114300000D02*
X82550000Y-114300000D01*
X82550000Y-111760000D02*
X82550000Y-114300000D01*
X87630000Y-111760000D02*
X82550000Y-111760000D01*
X87630000Y-121920000D02*
X82550000Y-121920000D01*
X82550000Y-121920000D02*
X82550000Y-133350000D01*
X82550000Y-114300000D02*
X82550000Y-121920000D01*
X88900000Y-72390000D02*
X86360000Y-74930000D01*
X86360000Y-107950000D02*
X82550000Y-111760000D01*
X86360000Y-74930000D02*
X86360000Y-107950000D01*
X96520000Y-72390000D02*
X88900000Y-72390000D01*
%TO.N,Net-(SW2-Pad2)*%
X90170000Y-101600000D02*
X92710000Y-104140000D01*
X92710000Y-104140000D02*
X92710000Y-106680000D01*
%TO.N,Net-(SW3-Pad2)*%
X86360000Y-118110000D02*
X87630000Y-119380000D01*
X90170000Y-119380000D02*
X92710000Y-121920000D01*
X87630000Y-119380000D02*
X90170000Y-119380000D01*
%TO.N,Net-(SW4-Pad2)*%
X100330000Y-93980000D02*
X100330000Y-114300000D01*
%TO.N,Net-(SW5-Pad1)*%
X111760000Y-113030000D02*
X111760000Y-116840000D01*
%TO.N,Net-(SW6-Pad1)*%
X123190000Y-102870000D02*
X123190000Y-111760000D01*
%TO.N,Net-(SW7-Pad1)*%
X118491000Y-127889000D02*
X109601000Y-127889000D01*
X119380000Y-127000000D02*
X118491000Y-127889000D01*
%TO.N,Net-(U1-Pad22)*%
X111760000Y-58420000D02*
X111760000Y-68383002D01*
X111760000Y-68383002D02*
X111760000Y-78740000D01*
X111760000Y-78740000D02*
X110490000Y-80010000D01*
%TO.N,Net-(U1-Pad24)*%
X101600000Y-58420000D02*
X101600000Y-74930000D01*
X101600000Y-74930000D02*
X99060000Y-77470000D01*
X99060000Y-77470000D02*
X91440000Y-77470000D01*
%TO.N,Net-(U1-Pad25)*%
X104140000Y-58420000D02*
X104140000Y-78740000D01*
%TO.N,Net-(U1-Pad26)*%
X109220000Y-58420000D02*
X109220000Y-74930000D01*
%TO.N,Net-(U1-Pad27)*%
X106680000Y-58420000D02*
X106680000Y-72390000D01*
%TO.N,Net-(U1-Pad36)*%
X99060000Y-58420000D02*
X99060000Y-67055002D01*
X99060000Y-67055002D02*
X99060000Y-69850000D01*
%TO.N,Net-(U1-Pad40)*%
X86741000Y-127381000D02*
X86741000Y-127889000D01*
X83820000Y-124460000D02*
X86741000Y-127381000D01*
%TD*%
D23*
%TO.N,Net-(SW1-Pad1)*%
X95080498Y-57325820D02*
X95044188Y-57445518D01*
X95031928Y-57570000D01*
X95035000Y-58134250D01*
X95193750Y-58293000D01*
X96393000Y-58293000D01*
X96393000Y-58273000D01*
X96647000Y-58273000D01*
X96647000Y-58293000D01*
X96667000Y-58293000D01*
X96667000Y-58547000D01*
X96647000Y-58547000D01*
X96647000Y-59746250D01*
X96805750Y-59905000D01*
X97370000Y-59908072D01*
X97494482Y-59895812D01*
X97614180Y-59859502D01*
X97724494Y-59800537D01*
X97821185Y-59721185D01*
X97900537Y-59624494D01*
X97959502Y-59514180D01*
X97981513Y-59441620D01*
X98113368Y-59573475D01*
X98300000Y-59698179D01*
X98300001Y-62751928D01*
X96940000Y-62751928D01*
X96815518Y-62764188D01*
X96695820Y-62800498D01*
X96585506Y-62859463D01*
X96520000Y-62913222D01*
X96454494Y-62859463D01*
X96344180Y-62800498D01*
X96224482Y-62764188D01*
X96100000Y-62751928D01*
X94400000Y-62751928D01*
X94275518Y-62764188D01*
X94155820Y-62800498D01*
X94045506Y-62859463D01*
X93980000Y-62913222D01*
X93914494Y-62859463D01*
X93804180Y-62800498D01*
X93684482Y-62764188D01*
X93560000Y-62751928D01*
X91860000Y-62751928D01*
X91735518Y-62764188D01*
X91615820Y-62800498D01*
X91505506Y-62859463D01*
X91440000Y-62913222D01*
X91374494Y-62859463D01*
X91264180Y-62800498D01*
X91144482Y-62764188D01*
X91020000Y-62751928D01*
X89320000Y-62751928D01*
X89195518Y-62764188D01*
X89075820Y-62800498D01*
X88965506Y-62859463D01*
X88900000Y-62913222D01*
X88834494Y-62859463D01*
X88724180Y-62800498D01*
X88604482Y-62764188D01*
X88480000Y-62751928D01*
X86780000Y-62751928D01*
X86655518Y-62764188D01*
X86535820Y-62800498D01*
X86425506Y-62859463D01*
X86360000Y-62913222D01*
X86294494Y-62859463D01*
X86184180Y-62800498D01*
X86064482Y-62764188D01*
X85940000Y-62751928D01*
X84240000Y-62751928D01*
X84115518Y-62764188D01*
X83995820Y-62800498D01*
X83885506Y-62859463D01*
X83820000Y-62913222D01*
X83754494Y-62859463D01*
X83644180Y-62800498D01*
X83524482Y-62764188D01*
X83400000Y-62751928D01*
X81700000Y-62751928D01*
X81575518Y-62764188D01*
X81455820Y-62800498D01*
X81345506Y-62859463D01*
X81248815Y-62938815D01*
X81169463Y-63035506D01*
X81110498Y-63145820D01*
X81074188Y-63265518D01*
X81061928Y-63390000D01*
X81061928Y-66890000D01*
X81074188Y-67014482D01*
X81110498Y-67134180D01*
X81169463Y-67244494D01*
X81248815Y-67341185D01*
X81345506Y-67420537D01*
X81455820Y-67479502D01*
X81575518Y-67515812D01*
X81700000Y-67528072D01*
X83400000Y-67528072D01*
X83524482Y-67515812D01*
X83644180Y-67479502D01*
X83754494Y-67420537D01*
X83820000Y-67366778D01*
X83885506Y-67420537D01*
X83995820Y-67479502D01*
X84115518Y-67515812D01*
X84240000Y-67528072D01*
X85940000Y-67528072D01*
X86064482Y-67515812D01*
X86184180Y-67479502D01*
X86294494Y-67420537D01*
X86360000Y-67366778D01*
X86425506Y-67420537D01*
X86535820Y-67479502D01*
X86655518Y-67515812D01*
X86780000Y-67528072D01*
X88480000Y-67528072D01*
X88604482Y-67515812D01*
X88724180Y-67479502D01*
X88834494Y-67420537D01*
X88900000Y-67366778D01*
X88965506Y-67420537D01*
X89075820Y-67479502D01*
X89195518Y-67515812D01*
X89320000Y-67528072D01*
X91020000Y-67528072D01*
X91144482Y-67515812D01*
X91264180Y-67479502D01*
X91374494Y-67420537D01*
X91440000Y-67366778D01*
X91505506Y-67420537D01*
X91615820Y-67479502D01*
X91735518Y-67515812D01*
X91860000Y-67528072D01*
X93560000Y-67528072D01*
X93684482Y-67515812D01*
X93804180Y-67479502D01*
X93914494Y-67420537D01*
X93980000Y-67366778D01*
X94045506Y-67420537D01*
X94155820Y-67479502D01*
X94275518Y-67515812D01*
X94400000Y-67528072D01*
X96100000Y-67528072D01*
X96224482Y-67515812D01*
X96344180Y-67479502D01*
X96454494Y-67420537D01*
X96520000Y-67366778D01*
X96585506Y-67420537D01*
X96695820Y-67479502D01*
X96815518Y-67515812D01*
X96940000Y-67528072D01*
X98300000Y-67528072D01*
X98300001Y-69146288D01*
X98256063Y-69190226D01*
X98142795Y-69359744D01*
X98064774Y-69548102D01*
X98025000Y-69748061D01*
X98025000Y-69951939D01*
X98064774Y-70151898D01*
X98142795Y-70340256D01*
X98256063Y-70509774D01*
X98400226Y-70653937D01*
X98569744Y-70767205D01*
X98758102Y-70845226D01*
X98958061Y-70885000D01*
X99161939Y-70885000D01*
X99361898Y-70845226D01*
X99550256Y-70767205D01*
X99719774Y-70653937D01*
X99863937Y-70509774D01*
X99977205Y-70340256D01*
X100055226Y-70151898D01*
X100095000Y-69951939D01*
X100095000Y-69748061D01*
X100055226Y-69548102D01*
X99977205Y-69359744D01*
X99863937Y-69190226D01*
X99820000Y-69146289D01*
X99820000Y-67528072D01*
X100840001Y-67528072D01*
X100840001Y-74615196D01*
X98745199Y-76710000D01*
X92143711Y-76710000D01*
X92099774Y-76666063D01*
X91930256Y-76552795D01*
X91741898Y-76474774D01*
X91541939Y-76435000D01*
X91338061Y-76435000D01*
X91138102Y-76474774D01*
X90949744Y-76552795D01*
X90780226Y-76666063D01*
X90636063Y-76810226D01*
X90522795Y-76979744D01*
X90444774Y-77168102D01*
X90405000Y-77368061D01*
X90405000Y-77571939D01*
X90444774Y-77771898D01*
X90522795Y-77960256D01*
X90636063Y-78129774D01*
X90780226Y-78273937D01*
X90949744Y-78387205D01*
X91138102Y-78465226D01*
X91338061Y-78505000D01*
X91541939Y-78505000D01*
X91741898Y-78465226D01*
X91930256Y-78387205D01*
X92099774Y-78273937D01*
X92143711Y-78230000D01*
X99022678Y-78230000D01*
X99060000Y-78233676D01*
X99097322Y-78230000D01*
X99097333Y-78230000D01*
X99208986Y-78219003D01*
X99352247Y-78175546D01*
X99484276Y-78104974D01*
X99600001Y-78010001D01*
X99623804Y-77980997D01*
X102111008Y-75493795D01*
X102140001Y-75470001D01*
X102163795Y-75441008D01*
X102163799Y-75441004D01*
X102234973Y-75354277D01*
X102234974Y-75354276D01*
X102305546Y-75222247D01*
X102349003Y-75078986D01*
X102360000Y-74967333D01*
X102360000Y-74967324D01*
X102363676Y-74930001D01*
X102360000Y-74892678D01*
X102360000Y-67528072D01*
X103380000Y-67528072D01*
X103380001Y-78036288D01*
X103336063Y-78080226D01*
X103222795Y-78249744D01*
X103144774Y-78438102D01*
X103105000Y-78638061D01*
X103105000Y-78841939D01*
X103144774Y-79041898D01*
X103222795Y-79230256D01*
X103336063Y-79399774D01*
X103480226Y-79543937D01*
X103649744Y-79657205D01*
X103838102Y-79735226D01*
X104038061Y-79775000D01*
X104241939Y-79775000D01*
X104441898Y-79735226D01*
X104630256Y-79657205D01*
X104799774Y-79543937D01*
X104943937Y-79399774D01*
X105057205Y-79230256D01*
X105135226Y-79041898D01*
X105175000Y-78841939D01*
X105175000Y-78638061D01*
X105135226Y-78438102D01*
X105057205Y-78249744D01*
X104943937Y-78080226D01*
X104900000Y-78036289D01*
X104900000Y-67528072D01*
X105920001Y-67528072D01*
X105920001Y-71686288D01*
X105876063Y-71730226D01*
X105762795Y-71899744D01*
X105684774Y-72088102D01*
X105645000Y-72288061D01*
X105645000Y-72491939D01*
X105684774Y-72691898D01*
X105762795Y-72880256D01*
X105876063Y-73049774D01*
X106020226Y-73193937D01*
X106189744Y-73307205D01*
X106378102Y-73385226D01*
X106578061Y-73425000D01*
X106781939Y-73425000D01*
X106981898Y-73385226D01*
X107170256Y-73307205D01*
X107339774Y-73193937D01*
X107483937Y-73049774D01*
X107597205Y-72880256D01*
X107675226Y-72691898D01*
X107715000Y-72491939D01*
X107715000Y-72288061D01*
X107675226Y-72088102D01*
X107597205Y-71899744D01*
X107483937Y-71730226D01*
X107440000Y-71686289D01*
X107440000Y-67528072D01*
X108460001Y-67528072D01*
X108460001Y-74226288D01*
X108416063Y-74270226D01*
X108302795Y-74439744D01*
X108224774Y-74628102D01*
X108185000Y-74828061D01*
X108185000Y-75031939D01*
X108224774Y-75231898D01*
X108302795Y-75420256D01*
X108416063Y-75589774D01*
X108560226Y-75733937D01*
X108729744Y-75847205D01*
X108918102Y-75925226D01*
X109118061Y-75965000D01*
X109321939Y-75965000D01*
X109521898Y-75925226D01*
X109710256Y-75847205D01*
X109879774Y-75733937D01*
X110023937Y-75589774D01*
X110137205Y-75420256D01*
X110215226Y-75231898D01*
X110255000Y-75031939D01*
X110255000Y-74828061D01*
X110215226Y-74628102D01*
X110137205Y-74439744D01*
X110023937Y-74270226D01*
X109980000Y-74226289D01*
X109980000Y-67528072D01*
X111000001Y-67528072D01*
X111000001Y-68345660D01*
X111000000Y-68345670D01*
X111000001Y-78425197D01*
X110450199Y-78975000D01*
X110388061Y-78975000D01*
X110188102Y-79014774D01*
X109999744Y-79092795D01*
X109830226Y-79206063D01*
X109686063Y-79350226D01*
X109572795Y-79519744D01*
X109494774Y-79708102D01*
X109455000Y-79908061D01*
X109455000Y-80111939D01*
X109494774Y-80311898D01*
X109572795Y-80500256D01*
X109686063Y-80669774D01*
X109830226Y-80813937D01*
X109999744Y-80927205D01*
X110188102Y-81005226D01*
X110388061Y-81045000D01*
X110591939Y-81045000D01*
X110791898Y-81005226D01*
X110980256Y-80927205D01*
X111149774Y-80813937D01*
X111293937Y-80669774D01*
X111407205Y-80500256D01*
X111485226Y-80311898D01*
X111525000Y-80111939D01*
X111525000Y-80049801D01*
X112271003Y-79303799D01*
X112300001Y-79280001D01*
X112394974Y-79164276D01*
X112465546Y-79032247D01*
X112509003Y-78888986D01*
X112520000Y-78777333D01*
X112520000Y-78777324D01*
X112523676Y-78740001D01*
X112520000Y-78702678D01*
X112520000Y-77218589D01*
X126265000Y-77218589D01*
X126265000Y-77491411D01*
X126318225Y-77758989D01*
X126422629Y-78011043D01*
X126574201Y-78237886D01*
X126767114Y-78430799D01*
X126993957Y-78582371D01*
X127246011Y-78686775D01*
X127513589Y-78740000D01*
X127786411Y-78740000D01*
X128053989Y-78686775D01*
X128306043Y-78582371D01*
X128532886Y-78430799D01*
X128725799Y-78237886D01*
X128877371Y-78011043D01*
X128981775Y-77758989D01*
X129035000Y-77491411D01*
X129035000Y-77218589D01*
X128981775Y-76951011D01*
X128877371Y-76698957D01*
X128725799Y-76472114D01*
X128532886Y-76279201D01*
X128306043Y-76127629D01*
X128053989Y-76023225D01*
X127786411Y-75970000D01*
X127513589Y-75970000D01*
X127246011Y-76023225D01*
X126993957Y-76127629D01*
X126767114Y-76279201D01*
X126574201Y-76472114D01*
X126422629Y-76698957D01*
X126318225Y-76951011D01*
X126265000Y-77218589D01*
X112520000Y-77218589D01*
X112520000Y-72368589D01*
X126265000Y-72368589D01*
X126265000Y-72641411D01*
X126318225Y-72908989D01*
X126422629Y-73161043D01*
X126574201Y-73387886D01*
X126767114Y-73580799D01*
X126993957Y-73732371D01*
X127246011Y-73836775D01*
X127513589Y-73890000D01*
X127786411Y-73890000D01*
X128053989Y-73836775D01*
X128306043Y-73732371D01*
X128532886Y-73580799D01*
X128725799Y-73387886D01*
X128877371Y-73161043D01*
X128981775Y-72908989D01*
X129035000Y-72641411D01*
X129035000Y-72368589D01*
X128981775Y-72101011D01*
X128877371Y-71848957D01*
X128725799Y-71622114D01*
X128532886Y-71429201D01*
X128306043Y-71277629D01*
X128053989Y-71173225D01*
X127786411Y-71120000D01*
X127513589Y-71120000D01*
X127246011Y-71173225D01*
X126993957Y-71277629D01*
X126767114Y-71429201D01*
X126574201Y-71622114D01*
X126422629Y-71848957D01*
X126318225Y-72101011D01*
X126265000Y-72368589D01*
X112520000Y-72368589D01*
X112520000Y-67528072D01*
X113880000Y-67528072D01*
X114004482Y-67515812D01*
X114124180Y-67479502D01*
X114234494Y-67420537D01*
X114300000Y-67366778D01*
X114365506Y-67420537D01*
X114475820Y-67479502D01*
X114595518Y-67515812D01*
X114720000Y-67528072D01*
X116420000Y-67528072D01*
X116544482Y-67515812D01*
X116664180Y-67479502D01*
X116774494Y-67420537D01*
X116840000Y-67366778D01*
X116905506Y-67420537D01*
X117015820Y-67479502D01*
X117135518Y-67515812D01*
X117260000Y-67528072D01*
X118960000Y-67528072D01*
X119084482Y-67515812D01*
X119204180Y-67479502D01*
X119314494Y-67420537D01*
X119380000Y-67366778D01*
X119445506Y-67420537D01*
X119555820Y-67479502D01*
X119675518Y-67515812D01*
X119800000Y-67528072D01*
X121500000Y-67528072D01*
X121624482Y-67515812D01*
X121744180Y-67479502D01*
X121854494Y-67420537D01*
X121920000Y-67366778D01*
X121985506Y-67420537D01*
X122095820Y-67479502D01*
X122215518Y-67515812D01*
X122340000Y-67528072D01*
X124040000Y-67528072D01*
X124164482Y-67515812D01*
X124284180Y-67479502D01*
X124394494Y-67420537D01*
X124460000Y-67366778D01*
X124525506Y-67420537D01*
X124635820Y-67479502D01*
X124755518Y-67515812D01*
X124880000Y-67528072D01*
X125444250Y-67525000D01*
X125603000Y-67366250D01*
X125603000Y-62913750D01*
X125444250Y-62755000D01*
X124880000Y-62751928D01*
X124755518Y-62764188D01*
X124635820Y-62800498D01*
X124525506Y-62859463D01*
X124460000Y-62913222D01*
X124394494Y-62859463D01*
X124284180Y-62800498D01*
X124164482Y-62764188D01*
X124040000Y-62751928D01*
X122340000Y-62751928D01*
X122215518Y-62764188D01*
X122095820Y-62800498D01*
X121985506Y-62859463D01*
X121920000Y-62913222D01*
X121854494Y-62859463D01*
X121744180Y-62800498D01*
X121624482Y-62764188D01*
X121500000Y-62751928D01*
X119800000Y-62751928D01*
X119675518Y-62764188D01*
X119555820Y-62800498D01*
X119445506Y-62859463D01*
X119380000Y-62913222D01*
X119314494Y-62859463D01*
X119204180Y-62800498D01*
X119084482Y-62764188D01*
X118960000Y-62751928D01*
X117260000Y-62751928D01*
X117135518Y-62764188D01*
X117015820Y-62800498D01*
X116905506Y-62859463D01*
X116840000Y-62913222D01*
X116774494Y-62859463D01*
X116664180Y-62800498D01*
X116544482Y-62764188D01*
X116420000Y-62751928D01*
X114720000Y-62751928D01*
X114595518Y-62764188D01*
X114475820Y-62800498D01*
X114365506Y-62859463D01*
X114300000Y-62913222D01*
X114234494Y-62859463D01*
X114124180Y-62800498D01*
X114004482Y-62764188D01*
X113880000Y-62751928D01*
X112520000Y-62751928D01*
X112520000Y-59698178D01*
X112706632Y-59573475D01*
X112913475Y-59366632D01*
X113030000Y-59192240D01*
X113146525Y-59366632D01*
X113353368Y-59573475D01*
X113596589Y-59735990D01*
X113866842Y-59847932D01*
X114153740Y-59905000D01*
X114446260Y-59905000D01*
X114733158Y-59847932D01*
X115003411Y-59735990D01*
X115246632Y-59573475D01*
X115453475Y-59366632D01*
X115615990Y-59123411D01*
X115727932Y-58853158D01*
X115785000Y-58566260D01*
X115785000Y-58273740D01*
X115727932Y-57986842D01*
X115615990Y-57716589D01*
X115453475Y-57473368D01*
X115257107Y-57277000D01*
X126873000Y-57277000D01*
X126873000Y-59690000D01*
X126875440Y-59714776D01*
X126882667Y-59738601D01*
X126894403Y-59760557D01*
X126910197Y-59779803D01*
X128180197Y-61049803D01*
X128199443Y-61065597D01*
X128221399Y-61077333D01*
X128245224Y-61084560D01*
X128270000Y-61087000D01*
X130683000Y-61087000D01*
X130683000Y-62751928D01*
X129960000Y-62751928D01*
X129835518Y-62764188D01*
X129715820Y-62800498D01*
X129605506Y-62859463D01*
X129540000Y-62913222D01*
X129474494Y-62859463D01*
X129364180Y-62800498D01*
X129244482Y-62764188D01*
X129120000Y-62751928D01*
X127420000Y-62751928D01*
X127295518Y-62764188D01*
X127175820Y-62800498D01*
X127065506Y-62859463D01*
X127000000Y-62913222D01*
X126934494Y-62859463D01*
X126824180Y-62800498D01*
X126704482Y-62764188D01*
X126580000Y-62751928D01*
X126015750Y-62755000D01*
X125857000Y-62913750D01*
X125857000Y-67366250D01*
X126015750Y-67525000D01*
X126580000Y-67528072D01*
X126704482Y-67515812D01*
X126824180Y-67479502D01*
X126934494Y-67420537D01*
X127000000Y-67366778D01*
X127065506Y-67420537D01*
X127175820Y-67479502D01*
X127295518Y-67515812D01*
X127420000Y-67528072D01*
X129120000Y-67528072D01*
X129244482Y-67515812D01*
X129364180Y-67479502D01*
X129474494Y-67420537D01*
X129540000Y-67366778D01*
X129605506Y-67420537D01*
X129715820Y-67479502D01*
X129835518Y-67515812D01*
X129960000Y-67528072D01*
X130683000Y-67528072D01*
X130683000Y-70670000D01*
X130528816Y-70670000D01*
X130232257Y-70728989D01*
X129952905Y-70844701D01*
X129701495Y-71012688D01*
X129487688Y-71226495D01*
X129319701Y-71477905D01*
X129203989Y-71757257D01*
X129145000Y-72053816D01*
X129145000Y-72356184D01*
X129203989Y-72652743D01*
X129319701Y-72932095D01*
X129487688Y-73183505D01*
X129701495Y-73397312D01*
X129952905Y-73565299D01*
X130232257Y-73681011D01*
X130528816Y-73740000D01*
X130683000Y-73740000D01*
X130683000Y-76120000D01*
X130528816Y-76120000D01*
X130232257Y-76178989D01*
X129952905Y-76294701D01*
X129701495Y-76462688D01*
X129487688Y-76676495D01*
X129319701Y-76927905D01*
X129203989Y-77207257D01*
X129145000Y-77503816D01*
X129145000Y-77806184D01*
X129203989Y-78102743D01*
X129319701Y-78382095D01*
X129487688Y-78633505D01*
X129701495Y-78847312D01*
X129952905Y-79015299D01*
X130232257Y-79131011D01*
X130528816Y-79190000D01*
X130683000Y-79190000D01*
X130683000Y-82331928D01*
X129960000Y-82331928D01*
X129835518Y-82344188D01*
X129715820Y-82380498D01*
X129605506Y-82439463D01*
X129540000Y-82493222D01*
X129474494Y-82439463D01*
X129364180Y-82380498D01*
X129244482Y-82344188D01*
X129120000Y-82331928D01*
X127420000Y-82331928D01*
X127295518Y-82344188D01*
X127175820Y-82380498D01*
X127065506Y-82439463D01*
X127000000Y-82493222D01*
X126934494Y-82439463D01*
X126824180Y-82380498D01*
X126704482Y-82344188D01*
X126580000Y-82331928D01*
X124880000Y-82331928D01*
X124755518Y-82344188D01*
X124635820Y-82380498D01*
X124525506Y-82439463D01*
X124460000Y-82493222D01*
X124394494Y-82439463D01*
X124284180Y-82380498D01*
X124164482Y-82344188D01*
X124040000Y-82331928D01*
X122340000Y-82331928D01*
X122215518Y-82344188D01*
X122095820Y-82380498D01*
X121985506Y-82439463D01*
X121920000Y-82493222D01*
X121854494Y-82439463D01*
X121744180Y-82380498D01*
X121624482Y-82344188D01*
X121500000Y-82331928D01*
X119800000Y-82331928D01*
X119675518Y-82344188D01*
X119555820Y-82380498D01*
X119445506Y-82439463D01*
X119380000Y-82493222D01*
X119314494Y-82439463D01*
X119204180Y-82380498D01*
X119084482Y-82344188D01*
X118960000Y-82331928D01*
X117260000Y-82331928D01*
X117135518Y-82344188D01*
X117015820Y-82380498D01*
X116905506Y-82439463D01*
X116840000Y-82493222D01*
X116774494Y-82439463D01*
X116664180Y-82380498D01*
X116544482Y-82344188D01*
X116420000Y-82331928D01*
X114720000Y-82331928D01*
X114595518Y-82344188D01*
X114475820Y-82380498D01*
X114365506Y-82439463D01*
X114300000Y-82493222D01*
X114234494Y-82439463D01*
X114124180Y-82380498D01*
X114004482Y-82344188D01*
X113880000Y-82331928D01*
X112180000Y-82331928D01*
X112055518Y-82344188D01*
X111935820Y-82380498D01*
X111825506Y-82439463D01*
X111760000Y-82493222D01*
X111694494Y-82439463D01*
X111584180Y-82380498D01*
X111464482Y-82344188D01*
X111340000Y-82331928D01*
X109640000Y-82331928D01*
X109515518Y-82344188D01*
X109395820Y-82380498D01*
X109285506Y-82439463D01*
X109220000Y-82493222D01*
X109154494Y-82439463D01*
X109044180Y-82380498D01*
X108924482Y-82344188D01*
X108800000Y-82331928D01*
X107100000Y-82331928D01*
X106975518Y-82344188D01*
X106855820Y-82380498D01*
X106745506Y-82439463D01*
X106680000Y-82493222D01*
X106614494Y-82439463D01*
X106504180Y-82380498D01*
X106384482Y-82344188D01*
X106260000Y-82331928D01*
X104560000Y-82331928D01*
X104435518Y-82344188D01*
X104315820Y-82380498D01*
X104205506Y-82439463D01*
X104140000Y-82493222D01*
X104074494Y-82439463D01*
X103964180Y-82380498D01*
X103844482Y-82344188D01*
X103720000Y-82331928D01*
X102020000Y-82331928D01*
X101895518Y-82344188D01*
X101775820Y-82380498D01*
X101665506Y-82439463D01*
X101600000Y-82493222D01*
X101534494Y-82439463D01*
X101424180Y-82380498D01*
X101304482Y-82344188D01*
X101180000Y-82331928D01*
X99480000Y-82331928D01*
X99355518Y-82344188D01*
X99235820Y-82380498D01*
X99125506Y-82439463D01*
X99060000Y-82493222D01*
X98994494Y-82439463D01*
X98884180Y-82380498D01*
X98764482Y-82344188D01*
X98640000Y-82331928D01*
X96940000Y-82331928D01*
X96815518Y-82344188D01*
X96695820Y-82380498D01*
X96585506Y-82439463D01*
X96520000Y-82493222D01*
X96454494Y-82439463D01*
X96344180Y-82380498D01*
X96224482Y-82344188D01*
X96100000Y-82331928D01*
X94400000Y-82331928D01*
X94275518Y-82344188D01*
X94155820Y-82380498D01*
X94045506Y-82439463D01*
X93980000Y-82493222D01*
X93914494Y-82439463D01*
X93804180Y-82380498D01*
X93684482Y-82344188D01*
X93560000Y-82331928D01*
X91860000Y-82331928D01*
X91735518Y-82344188D01*
X91615820Y-82380498D01*
X91505506Y-82439463D01*
X91440000Y-82493222D01*
X91374494Y-82439463D01*
X91264180Y-82380498D01*
X91144482Y-82344188D01*
X91020000Y-82331928D01*
X89320000Y-82331928D01*
X89195518Y-82344188D01*
X89075820Y-82380498D01*
X88965506Y-82439463D01*
X88900000Y-82493222D01*
X88834494Y-82439463D01*
X88724180Y-82380498D01*
X88604482Y-82344188D01*
X88480000Y-82331928D01*
X86780000Y-82331928D01*
X86655518Y-82344188D01*
X86535820Y-82380498D01*
X86425506Y-82439463D01*
X86360000Y-82493222D01*
X86294494Y-82439463D01*
X86184180Y-82380498D01*
X86064482Y-82344188D01*
X85940000Y-82331928D01*
X84240000Y-82331928D01*
X84115518Y-82344188D01*
X83995820Y-82380498D01*
X83885506Y-82439463D01*
X83820000Y-82493222D01*
X83754494Y-82439463D01*
X83644180Y-82380498D01*
X83524482Y-82344188D01*
X83400000Y-82331928D01*
X81700000Y-82331928D01*
X81575518Y-82344188D01*
X81455820Y-82380498D01*
X81345506Y-82439463D01*
X81248815Y-82518815D01*
X81169463Y-82615506D01*
X81110498Y-82725820D01*
X81074188Y-82845518D01*
X81061928Y-82970000D01*
X81061928Y-86470000D01*
X81074188Y-86594482D01*
X81110498Y-86714180D01*
X81169463Y-86824494D01*
X81248815Y-86921185D01*
X81345506Y-87000537D01*
X81455820Y-87059502D01*
X81575518Y-87095812D01*
X81700000Y-87108072D01*
X83400000Y-87108072D01*
X83524482Y-87095812D01*
X83644180Y-87059502D01*
X83754494Y-87000537D01*
X83820000Y-86946778D01*
X83885506Y-87000537D01*
X83995820Y-87059502D01*
X84115518Y-87095812D01*
X84240000Y-87108072D01*
X85940000Y-87108072D01*
X86064482Y-87095812D01*
X86184180Y-87059502D01*
X86294494Y-87000537D01*
X86360000Y-86946778D01*
X86425506Y-87000537D01*
X86535820Y-87059502D01*
X86655518Y-87095812D01*
X86780000Y-87108072D01*
X88480000Y-87108072D01*
X88604482Y-87095812D01*
X88724180Y-87059502D01*
X88834494Y-87000537D01*
X88900000Y-86946778D01*
X88965506Y-87000537D01*
X89075820Y-87059502D01*
X89195518Y-87095812D01*
X89320000Y-87108072D01*
X91020000Y-87108072D01*
X91144482Y-87095812D01*
X91264180Y-87059502D01*
X91374494Y-87000537D01*
X91440000Y-86946778D01*
X91505506Y-87000537D01*
X91615820Y-87059502D01*
X91735518Y-87095812D01*
X91860000Y-87108072D01*
X93560000Y-87108072D01*
X93684482Y-87095812D01*
X93804180Y-87059502D01*
X93914494Y-87000537D01*
X93980000Y-86946778D01*
X94045506Y-87000537D01*
X94155820Y-87059502D01*
X94275518Y-87095812D01*
X94400000Y-87108072D01*
X96100000Y-87108072D01*
X96224482Y-87095812D01*
X96344180Y-87059502D01*
X96454494Y-87000537D01*
X96520000Y-86946778D01*
X96585506Y-87000537D01*
X96695820Y-87059502D01*
X96815518Y-87095812D01*
X96940000Y-87108072D01*
X98640000Y-87108072D01*
X98764482Y-87095812D01*
X98884180Y-87059502D01*
X98994494Y-87000537D01*
X99060000Y-86946778D01*
X99125506Y-87000537D01*
X99235820Y-87059502D01*
X99355518Y-87095812D01*
X99480000Y-87108072D01*
X101180000Y-87108072D01*
X101304482Y-87095812D01*
X101424180Y-87059502D01*
X101534494Y-87000537D01*
X101600000Y-86946778D01*
X101665506Y-87000537D01*
X101775820Y-87059502D01*
X101895518Y-87095812D01*
X102020000Y-87108072D01*
X103720000Y-87108072D01*
X103844482Y-87095812D01*
X103964180Y-87059502D01*
X104074494Y-87000537D01*
X104140000Y-86946778D01*
X104205506Y-87000537D01*
X104315820Y-87059502D01*
X104435518Y-87095812D01*
X104560000Y-87108072D01*
X106260000Y-87108072D01*
X106384482Y-87095812D01*
X106504180Y-87059502D01*
X106614494Y-87000537D01*
X106680000Y-86946778D01*
X106745506Y-87000537D01*
X106855820Y-87059502D01*
X106975518Y-87095812D01*
X107100000Y-87108072D01*
X108800000Y-87108072D01*
X108924482Y-87095812D01*
X109044180Y-87059502D01*
X109154494Y-87000537D01*
X109220000Y-86946778D01*
X109285506Y-87000537D01*
X109395820Y-87059502D01*
X109515518Y-87095812D01*
X109640000Y-87108072D01*
X111340000Y-87108072D01*
X111464482Y-87095812D01*
X111584180Y-87059502D01*
X111694494Y-87000537D01*
X111760000Y-86946778D01*
X111825506Y-87000537D01*
X111935820Y-87059502D01*
X112055518Y-87095812D01*
X112180000Y-87108072D01*
X113880000Y-87108072D01*
X114004482Y-87095812D01*
X114124180Y-87059502D01*
X114234494Y-87000537D01*
X114300000Y-86946778D01*
X114365506Y-87000537D01*
X114475820Y-87059502D01*
X114595518Y-87095812D01*
X114720000Y-87108072D01*
X116420000Y-87108072D01*
X116544482Y-87095812D01*
X116664180Y-87059502D01*
X116774494Y-87000537D01*
X116840000Y-86946778D01*
X116905506Y-87000537D01*
X117015820Y-87059502D01*
X117135518Y-87095812D01*
X117260000Y-87108072D01*
X118960000Y-87108072D01*
X119084482Y-87095812D01*
X119204180Y-87059502D01*
X119314494Y-87000537D01*
X119380000Y-86946778D01*
X119445506Y-87000537D01*
X119555820Y-87059502D01*
X119675518Y-87095812D01*
X119800000Y-87108072D01*
X121500000Y-87108072D01*
X121624482Y-87095812D01*
X121744180Y-87059502D01*
X121854494Y-87000537D01*
X121920000Y-86946778D01*
X121985506Y-87000537D01*
X122095820Y-87059502D01*
X122215518Y-87095812D01*
X122340000Y-87108072D01*
X124040000Y-87108072D01*
X124164482Y-87095812D01*
X124284180Y-87059502D01*
X124394494Y-87000537D01*
X124460000Y-86946778D01*
X124525506Y-87000537D01*
X124635820Y-87059502D01*
X124755518Y-87095812D01*
X124880000Y-87108072D01*
X126580000Y-87108072D01*
X126704482Y-87095812D01*
X126824180Y-87059502D01*
X126934494Y-87000537D01*
X127000000Y-86946778D01*
X127065506Y-87000537D01*
X127175820Y-87059502D01*
X127295518Y-87095812D01*
X127420000Y-87108072D01*
X129120000Y-87108072D01*
X129244482Y-87095812D01*
X129364180Y-87059502D01*
X129474494Y-87000537D01*
X129540000Y-86946778D01*
X129605506Y-87000537D01*
X129715820Y-87059502D01*
X129835518Y-87095812D01*
X129960000Y-87108072D01*
X130683000Y-87108072D01*
X130683000Y-88121481D01*
X130530119Y-88075105D01*
X130275225Y-88050000D01*
X128804775Y-88050000D01*
X128549881Y-88075105D01*
X128222832Y-88174314D01*
X127921422Y-88335421D01*
X127657234Y-88552234D01*
X127440421Y-88816422D01*
X127279314Y-89117832D01*
X127180105Y-89444881D01*
X127146606Y-89785000D01*
X127180105Y-90125119D01*
X127279314Y-90452168D01*
X127440421Y-90753578D01*
X127657234Y-91017766D01*
X127848994Y-91175139D01*
X127754236Y-91352419D01*
X127675040Y-91613493D01*
X127648299Y-91885000D01*
X127675040Y-92156507D01*
X127754236Y-92417581D01*
X127882843Y-92658188D01*
X128055919Y-92869081D01*
X128075316Y-92885000D01*
X128055919Y-92900919D01*
X127882843Y-93111812D01*
X127754236Y-93352419D01*
X127675040Y-93613493D01*
X127648299Y-93885000D01*
X127675040Y-94156507D01*
X127754236Y-94417581D01*
X127878940Y-94650886D01*
X127838815Y-94683815D01*
X127759463Y-94780506D01*
X127700498Y-94890820D01*
X127664188Y-95010518D01*
X127651928Y-95135000D01*
X127651928Y-96635000D01*
X127663008Y-96747496D01*
X127657234Y-96752234D01*
X127440421Y-97016422D01*
X127279314Y-97317832D01*
X127180105Y-97644881D01*
X127146606Y-97985000D01*
X127180105Y-98325119D01*
X127279314Y-98652168D01*
X127440421Y-98953578D01*
X127657234Y-99217766D01*
X127921422Y-99434579D01*
X128222832Y-99595686D01*
X128549881Y-99694895D01*
X128804775Y-99720000D01*
X130275225Y-99720000D01*
X130530119Y-99694895D01*
X130683000Y-99648519D01*
X130683000Y-101580717D01*
X130598669Y-101524369D01*
X130191925Y-101355890D01*
X129760128Y-101270000D01*
X129319872Y-101270000D01*
X128888075Y-101355890D01*
X128481331Y-101524369D01*
X128115271Y-101768962D01*
X127803962Y-102080271D01*
X127559369Y-102446331D01*
X127390890Y-102853075D01*
X127305000Y-103284872D01*
X127305000Y-103725128D01*
X127390890Y-104156925D01*
X127559369Y-104563669D01*
X127803962Y-104929729D01*
X128115271Y-105241038D01*
X128481331Y-105485631D01*
X128888075Y-105654110D01*
X129319872Y-105740000D01*
X129760128Y-105740000D01*
X130191925Y-105654110D01*
X130598669Y-105485631D01*
X130683000Y-105429283D01*
X130683000Y-121265717D01*
X130598669Y-121209369D01*
X130191925Y-121040890D01*
X129760128Y-120955000D01*
X129319872Y-120955000D01*
X128888075Y-121040890D01*
X128481331Y-121209369D01*
X128115271Y-121453962D01*
X127803962Y-121765271D01*
X127559369Y-122131331D01*
X127390890Y-122538075D01*
X127305000Y-122969872D01*
X127305000Y-123410128D01*
X127390890Y-123841925D01*
X127559369Y-124248669D01*
X127803962Y-124614729D01*
X128115271Y-124926038D01*
X128481331Y-125170631D01*
X128888075Y-125339110D01*
X129319872Y-125425000D01*
X129760128Y-125425000D01*
X130191925Y-125339110D01*
X130598669Y-125170631D01*
X130683000Y-125114283D01*
X130683000Y-133320020D01*
X128165626Y-138354768D01*
X125654768Y-140865626D01*
X120620020Y-143383000D01*
X83947000Y-143383000D01*
X83947000Y-142621000D01*
X85340928Y-142621000D01*
X85353188Y-142745482D01*
X85389498Y-142865180D01*
X85448463Y-142975494D01*
X85527815Y-143072185D01*
X85624506Y-143151537D01*
X85734820Y-143210502D01*
X85854518Y-143246812D01*
X85979000Y-143259072D01*
X86455250Y-143256000D01*
X86614000Y-143097250D01*
X86614000Y-141986000D01*
X86868000Y-141986000D01*
X86868000Y-143097250D01*
X87026750Y-143256000D01*
X87503000Y-143259072D01*
X87627482Y-143246812D01*
X87747180Y-143210502D01*
X87857494Y-143151537D01*
X87954185Y-143072185D01*
X88033537Y-142975494D01*
X88092502Y-142865180D01*
X88128812Y-142745482D01*
X88141072Y-142621000D01*
X108200928Y-142621000D01*
X108213188Y-142745482D01*
X108249498Y-142865180D01*
X108308463Y-142975494D01*
X108387815Y-143072185D01*
X108484506Y-143151537D01*
X108594820Y-143210502D01*
X108714518Y-143246812D01*
X108839000Y-143259072D01*
X109315250Y-143256000D01*
X109474000Y-143097250D01*
X109474000Y-141986000D01*
X109728000Y-141986000D01*
X109728000Y-143097250D01*
X109886750Y-143256000D01*
X110363000Y-143259072D01*
X110487482Y-143246812D01*
X110607180Y-143210502D01*
X110717494Y-143151537D01*
X110814185Y-143072185D01*
X110893537Y-142975494D01*
X110952502Y-142865180D01*
X110988812Y-142745482D01*
X111001072Y-142621000D01*
X110998000Y-142144750D01*
X110839250Y-141986000D01*
X109728000Y-141986000D01*
X109474000Y-141986000D01*
X108362750Y-141986000D01*
X108204000Y-142144750D01*
X108200928Y-142621000D01*
X88141072Y-142621000D01*
X88138000Y-142144750D01*
X87979250Y-141986000D01*
X86868000Y-141986000D01*
X86614000Y-141986000D01*
X85502750Y-141986000D01*
X85344000Y-142144750D01*
X85340928Y-142621000D01*
X83947000Y-142621000D01*
X83947000Y-141097000D01*
X85340928Y-141097000D01*
X85344000Y-141573250D01*
X85502750Y-141732000D01*
X86614000Y-141732000D01*
X86614000Y-140620750D01*
X86868000Y-140620750D01*
X86868000Y-141732000D01*
X87979250Y-141732000D01*
X88138000Y-141573250D01*
X88141072Y-141097000D01*
X108200928Y-141097000D01*
X108204000Y-141573250D01*
X108362750Y-141732000D01*
X109474000Y-141732000D01*
X109474000Y-140620750D01*
X109315250Y-140462000D01*
X108839000Y-140458928D01*
X108714518Y-140471188D01*
X108594820Y-140507498D01*
X108484506Y-140566463D01*
X108387815Y-140645815D01*
X108308463Y-140742506D01*
X108249498Y-140852820D01*
X108213188Y-140972518D01*
X108200928Y-141097000D01*
X88141072Y-141097000D01*
X88128812Y-140972518D01*
X88092502Y-140852820D01*
X88033537Y-140742506D01*
X87954185Y-140645815D01*
X87857494Y-140566463D01*
X87747180Y-140507498D01*
X87627482Y-140471188D01*
X87503000Y-140458928D01*
X87026750Y-140462000D01*
X86868000Y-140620750D01*
X86614000Y-140620750D01*
X86455250Y-140462000D01*
X85979000Y-140458928D01*
X85854518Y-140471188D01*
X85734820Y-140507498D01*
X85624506Y-140566463D01*
X85527815Y-140645815D01*
X85448463Y-140742506D01*
X85389498Y-140852820D01*
X85353188Y-140972518D01*
X85340928Y-141097000D01*
X83947000Y-141097000D01*
X83947000Y-140970000D01*
X83944560Y-140945224D01*
X83937333Y-140921399D01*
X83925597Y-140899443D01*
X83909803Y-140880197D01*
X82639803Y-139610197D01*
X82620557Y-139594403D01*
X82598601Y-139582667D01*
X82574776Y-139575440D01*
X82550000Y-139573000D01*
X80137000Y-139573000D01*
X80137000Y-130048000D01*
X108200928Y-130048000D01*
X108200928Y-131572000D01*
X108213188Y-131696482D01*
X108249498Y-131816180D01*
X108308463Y-131926494D01*
X108387815Y-132023185D01*
X108484506Y-132102537D01*
X108594820Y-132161502D01*
X108714518Y-132197812D01*
X108839000Y-132210072D01*
X109926271Y-132210072D01*
X111000001Y-133283803D01*
X111000000Y-137726289D01*
X110956063Y-137770226D01*
X110906098Y-137845005D01*
X110893537Y-137821506D01*
X110814185Y-137724815D01*
X110717494Y-137645463D01*
X110607180Y-137586498D01*
X110487482Y-137550188D01*
X110363000Y-137537928D01*
X108839000Y-137537928D01*
X108714518Y-137550188D01*
X108594820Y-137586498D01*
X108484506Y-137645463D01*
X108387815Y-137724815D01*
X108308463Y-137821506D01*
X108249498Y-137931820D01*
X108213188Y-138051518D01*
X108200928Y-138176000D01*
X108200928Y-139700000D01*
X108213188Y-139824482D01*
X108249498Y-139944180D01*
X108308463Y-140054494D01*
X108387815Y-140151185D01*
X108484506Y-140230537D01*
X108594820Y-140289502D01*
X108714518Y-140325812D01*
X108839000Y-140338072D01*
X110053271Y-140338072D01*
X110175337Y-140460139D01*
X109886750Y-140462000D01*
X109728000Y-140620750D01*
X109728000Y-141732000D01*
X110839250Y-141732000D01*
X110950220Y-141621030D01*
X110956063Y-141629774D01*
X111100226Y-141773937D01*
X111269744Y-141887205D01*
X111458102Y-141965226D01*
X111658061Y-142005000D01*
X111861939Y-142005000D01*
X112061898Y-141965226D01*
X112250256Y-141887205D01*
X112419774Y-141773937D01*
X112563937Y-141629774D01*
X112677205Y-141460256D01*
X112755226Y-141271898D01*
X112795000Y-141071939D01*
X112795000Y-140868061D01*
X112755226Y-140668102D01*
X112677205Y-140479744D01*
X112563937Y-140310226D01*
X112419774Y-140166063D01*
X112250256Y-140052795D01*
X112061898Y-139974774D01*
X111861939Y-139935000D01*
X111799802Y-139935000D01*
X111001072Y-139136271D01*
X111001072Y-139134783D01*
X111100226Y-139233937D01*
X111269744Y-139347205D01*
X111458102Y-139425226D01*
X111658061Y-139465000D01*
X111861939Y-139465000D01*
X112061898Y-139425226D01*
X112250256Y-139347205D01*
X112419774Y-139233937D01*
X112563937Y-139089774D01*
X112677205Y-138920256D01*
X112755226Y-138731898D01*
X112795000Y-138531939D01*
X112795000Y-138328061D01*
X112755226Y-138128102D01*
X112677205Y-137939744D01*
X112563937Y-137770226D01*
X112520000Y-137726289D01*
X112520000Y-137580000D01*
X112811928Y-137580000D01*
X112811928Y-139280000D01*
X112824188Y-139404482D01*
X112860498Y-139524180D01*
X112919463Y-139634494D01*
X112998815Y-139731185D01*
X113095506Y-139810537D01*
X113205820Y-139869502D01*
X113278380Y-139891513D01*
X113146525Y-140023368D01*
X112984010Y-140266589D01*
X112872068Y-140536842D01*
X112815000Y-140823740D01*
X112815000Y-141116260D01*
X112872068Y-141403158D01*
X112984010Y-141673411D01*
X113146525Y-141916632D01*
X113353368Y-142123475D01*
X113596589Y-142285990D01*
X113866842Y-142397932D01*
X114153740Y-142455000D01*
X114446260Y-142455000D01*
X114733158Y-142397932D01*
X115003411Y-142285990D01*
X115246632Y-142123475D01*
X115453475Y-141916632D01*
X115615990Y-141673411D01*
X115727932Y-141403158D01*
X115785000Y-141116260D01*
X115785000Y-140823740D01*
X115727932Y-140536842D01*
X115615990Y-140266589D01*
X115453475Y-140023368D01*
X115321620Y-139891513D01*
X115394180Y-139869502D01*
X115504494Y-139810537D01*
X115601185Y-139731185D01*
X115680537Y-139634494D01*
X115739502Y-139524180D01*
X115775812Y-139404482D01*
X115788072Y-139280000D01*
X115788072Y-138328061D01*
X119615000Y-138328061D01*
X119615000Y-138531939D01*
X119654774Y-138731898D01*
X119732795Y-138920256D01*
X119846063Y-139089774D01*
X119990226Y-139233937D01*
X120159744Y-139347205D01*
X120348102Y-139425226D01*
X120548061Y-139465000D01*
X120751939Y-139465000D01*
X120951898Y-139425226D01*
X121140256Y-139347205D01*
X121309774Y-139233937D01*
X121353711Y-139190000D01*
X121882678Y-139190000D01*
X121920000Y-139193676D01*
X121957322Y-139190000D01*
X121957333Y-139190000D01*
X122068986Y-139179003D01*
X122212247Y-139135546D01*
X122344276Y-139064974D01*
X122460001Y-138970001D01*
X122483804Y-138940997D01*
X123891004Y-137533798D01*
X123920001Y-137510001D01*
X124014974Y-137394276D01*
X124085546Y-137262247D01*
X124129003Y-137118986D01*
X124140000Y-137007333D01*
X124140000Y-137007323D01*
X124143676Y-136970000D01*
X124140000Y-136932677D01*
X124140000Y-135838043D01*
X124294759Y-135734637D01*
X124494637Y-135534759D01*
X124651680Y-135299727D01*
X124759853Y-135038574D01*
X124815000Y-134761335D01*
X124815000Y-134478665D01*
X124759853Y-134201426D01*
X124651680Y-133940273D01*
X124494637Y-133705241D01*
X124294759Y-133505363D01*
X124059727Y-133348320D01*
X123798574Y-133240147D01*
X123521335Y-133185000D01*
X123238665Y-133185000D01*
X122961426Y-133240147D01*
X122700273Y-133348320D01*
X122465241Y-133505363D01*
X122265363Y-133705241D01*
X122108320Y-133940273D01*
X122000147Y-134201426D01*
X121945000Y-134478665D01*
X121945000Y-134761335D01*
X122000147Y-135038574D01*
X122108320Y-135299727D01*
X122265363Y-135534759D01*
X122465241Y-135734637D01*
X122620000Y-135838044D01*
X122620000Y-136655198D01*
X121605199Y-137670000D01*
X121353711Y-137670000D01*
X121309774Y-137626063D01*
X121140256Y-137512795D01*
X120951898Y-137434774D01*
X120751939Y-137395000D01*
X120548061Y-137395000D01*
X120348102Y-137434774D01*
X120159744Y-137512795D01*
X119990226Y-137626063D01*
X119846063Y-137770226D01*
X119732795Y-137939744D01*
X119654774Y-138128102D01*
X119615000Y-138328061D01*
X115788072Y-138328061D01*
X115788072Y-137580000D01*
X115775812Y-137455518D01*
X115739502Y-137335820D01*
X115680537Y-137225506D01*
X115601185Y-137128815D01*
X115504494Y-137049463D01*
X115394180Y-136990498D01*
X115274482Y-136954188D01*
X115150000Y-136941928D01*
X113450000Y-136941928D01*
X113325518Y-136954188D01*
X113205820Y-136990498D01*
X113095506Y-137049463D01*
X112998815Y-137128815D01*
X112919463Y-137225506D01*
X112860498Y-137335820D01*
X112824188Y-137455518D01*
X112811928Y-137580000D01*
X112520000Y-137580000D01*
X112520000Y-133248061D01*
X113265000Y-133248061D01*
X113265000Y-133451939D01*
X113304774Y-133651898D01*
X113382795Y-133840256D01*
X113496063Y-134009774D01*
X113640226Y-134153937D01*
X113809744Y-134267205D01*
X113998102Y-134345226D01*
X114198061Y-134385000D01*
X114401939Y-134385000D01*
X114601898Y-134345226D01*
X114790256Y-134267205D01*
X114959774Y-134153937D01*
X115003711Y-134110000D01*
X117795199Y-134110000D01*
X117941928Y-134256729D01*
X117941928Y-135420000D01*
X117954188Y-135544482D01*
X117990498Y-135664180D01*
X118049463Y-135774494D01*
X118128815Y-135871185D01*
X118225506Y-135950537D01*
X118335820Y-136009502D01*
X118455518Y-136045812D01*
X118580000Y-136058072D01*
X120180000Y-136058072D01*
X120304482Y-136045812D01*
X120424180Y-136009502D01*
X120534494Y-135950537D01*
X120631185Y-135871185D01*
X120710537Y-135774494D01*
X120769502Y-135664180D01*
X120805812Y-135544482D01*
X120818072Y-135420000D01*
X120818072Y-133820000D01*
X120805812Y-133695518D01*
X120769502Y-133575820D01*
X120710537Y-133465506D01*
X120631185Y-133368815D01*
X120534494Y-133289463D01*
X120424180Y-133230498D01*
X120304482Y-133194188D01*
X120180000Y-133181928D01*
X119016729Y-133181928D01*
X118673804Y-132839003D01*
X118650001Y-132809999D01*
X118534276Y-132715026D01*
X118402247Y-132644454D01*
X118258986Y-132600997D01*
X118147333Y-132590000D01*
X118147322Y-132590000D01*
X118110000Y-132586324D01*
X118072678Y-132590000D01*
X115003711Y-132590000D01*
X114959774Y-132546063D01*
X114790256Y-132432795D01*
X114601898Y-132354774D01*
X114401939Y-132315000D01*
X114198061Y-132315000D01*
X113998102Y-132354774D01*
X113809744Y-132432795D01*
X113640226Y-132546063D01*
X113496063Y-132690226D01*
X113382795Y-132859744D01*
X113304774Y-133048102D01*
X113265000Y-133248061D01*
X112520000Y-133248061D01*
X112520000Y-133006322D01*
X112523676Y-132968999D01*
X112520000Y-132931676D01*
X112520000Y-132931667D01*
X112509003Y-132820014D01*
X112465546Y-132676753D01*
X112395690Y-132546063D01*
X112394974Y-132544723D01*
X112323799Y-132457997D01*
X112300001Y-132428999D01*
X112271003Y-132405201D01*
X111001072Y-131135271D01*
X111001072Y-130048000D01*
X110988812Y-129923518D01*
X110952502Y-129803820D01*
X110893537Y-129693506D01*
X110814185Y-129596815D01*
X110717494Y-129517463D01*
X110607180Y-129458498D01*
X110487482Y-129422188D01*
X110363000Y-129409928D01*
X108839000Y-129409928D01*
X108714518Y-129422188D01*
X108594820Y-129458498D01*
X108484506Y-129517463D01*
X108387815Y-129596815D01*
X108308463Y-129693506D01*
X108249498Y-129803820D01*
X108213188Y-129923518D01*
X108200928Y-130048000D01*
X80137000Y-130048000D01*
X80137000Y-124358061D01*
X82785000Y-124358061D01*
X82785000Y-124561939D01*
X82824774Y-124761898D01*
X82902795Y-124950256D01*
X83016063Y-125119774D01*
X83160226Y-125263937D01*
X83329744Y-125377205D01*
X83518102Y-125455226D01*
X83718061Y-125495000D01*
X83780199Y-125495000D01*
X85347318Y-127062120D01*
X85340928Y-127127000D01*
X85340928Y-128651000D01*
X85353188Y-128775482D01*
X85389498Y-128895180D01*
X85448463Y-129005494D01*
X85527815Y-129102185D01*
X85624506Y-129181537D01*
X85734820Y-129240502D01*
X85854518Y-129276812D01*
X85979000Y-129289072D01*
X87503000Y-129289072D01*
X87627482Y-129276812D01*
X87747180Y-129240502D01*
X87857494Y-129181537D01*
X87954185Y-129102185D01*
X88033537Y-129005494D01*
X88092502Y-128895180D01*
X88128812Y-128775482D01*
X88141072Y-128651000D01*
X88141072Y-127127000D01*
X108200928Y-127127000D01*
X108200928Y-128651000D01*
X108213188Y-128775482D01*
X108249498Y-128895180D01*
X108308463Y-129005494D01*
X108387815Y-129102185D01*
X108484506Y-129181537D01*
X108594820Y-129240502D01*
X108714518Y-129276812D01*
X108839000Y-129289072D01*
X110363000Y-129289072D01*
X110487482Y-129276812D01*
X110607180Y-129240502D01*
X110717494Y-129181537D01*
X110814185Y-129102185D01*
X110893537Y-129005494D01*
X110952502Y-128895180D01*
X110988812Y-128775482D01*
X111001072Y-128651000D01*
X111001072Y-128649000D01*
X118453678Y-128649000D01*
X118491000Y-128652676D01*
X118528322Y-128649000D01*
X118528333Y-128649000D01*
X118639986Y-128638003D01*
X118783247Y-128594546D01*
X118915276Y-128523974D01*
X119031001Y-128429001D01*
X119054803Y-128399998D01*
X119419801Y-128035000D01*
X119481939Y-128035000D01*
X119681898Y-127995226D01*
X119870256Y-127917205D01*
X120039774Y-127803937D01*
X120183937Y-127659774D01*
X120297205Y-127490256D01*
X120375226Y-127301898D01*
X120415000Y-127101939D01*
X120415000Y-126898061D01*
X120375226Y-126698102D01*
X120297205Y-126509744D01*
X120183937Y-126340226D01*
X120039774Y-126196063D01*
X119870256Y-126082795D01*
X119681898Y-126004774D01*
X119481939Y-125965000D01*
X119278061Y-125965000D01*
X119078102Y-126004774D01*
X118889744Y-126082795D01*
X118720226Y-126196063D01*
X118576063Y-126340226D01*
X118462795Y-126509744D01*
X118384774Y-126698102D01*
X118345000Y-126898061D01*
X118345000Y-126960199D01*
X118176199Y-127129000D01*
X111001072Y-127129000D01*
X111001072Y-127127000D01*
X110988812Y-127002518D01*
X110952502Y-126882820D01*
X110893537Y-126772506D01*
X110814185Y-126675815D01*
X110717494Y-126596463D01*
X110607180Y-126537498D01*
X110487482Y-126501188D01*
X110363000Y-126488928D01*
X108839000Y-126488928D01*
X108714518Y-126501188D01*
X108594820Y-126537498D01*
X108484506Y-126596463D01*
X108387815Y-126675815D01*
X108308463Y-126772506D01*
X108249498Y-126882820D01*
X108213188Y-127002518D01*
X108200928Y-127127000D01*
X88141072Y-127127000D01*
X88128812Y-127002518D01*
X88092502Y-126882820D01*
X88033537Y-126772506D01*
X87954185Y-126675815D01*
X87857494Y-126596463D01*
X87747180Y-126537498D01*
X87627482Y-126501188D01*
X87503000Y-126488928D01*
X86923730Y-126488928D01*
X84855000Y-124420199D01*
X84855000Y-124358061D01*
X84815226Y-124158102D01*
X84737205Y-123969744D01*
X84623937Y-123800226D01*
X84479774Y-123656063D01*
X84310256Y-123542795D01*
X84121898Y-123464774D01*
X83921939Y-123425000D01*
X83718061Y-123425000D01*
X83518102Y-123464774D01*
X83329744Y-123542795D01*
X83160226Y-123656063D01*
X83016063Y-123800226D01*
X82902795Y-123969744D01*
X82824774Y-124158102D01*
X82785000Y-124358061D01*
X80137000Y-124358061D01*
X80137000Y-122885565D01*
X86844040Y-122885565D01*
X86911020Y-123125656D01*
X87160048Y-123242756D01*
X87427135Y-123309023D01*
X87702017Y-123321910D01*
X87974133Y-123280922D01*
X88233023Y-123187636D01*
X88348980Y-123125656D01*
X88415960Y-122885565D01*
X87630000Y-122099605D01*
X86844040Y-122885565D01*
X80137000Y-122885565D01*
X80137000Y-121992017D01*
X86228090Y-121992017D01*
X86269078Y-122264133D01*
X86362364Y-122523023D01*
X86424344Y-122638980D01*
X86664435Y-122705960D01*
X87450395Y-121920000D01*
X87809605Y-121920000D01*
X88595565Y-122705960D01*
X88835656Y-122638980D01*
X88952756Y-122389952D01*
X89019023Y-122122865D01*
X89031910Y-121847983D01*
X88990922Y-121575867D01*
X88897636Y-121316977D01*
X88835656Y-121201020D01*
X88595565Y-121134040D01*
X87809605Y-121920000D01*
X87450395Y-121920000D01*
X86664435Y-121134040D01*
X86424344Y-121201020D01*
X86307244Y-121450048D01*
X86240977Y-121717135D01*
X86228090Y-121992017D01*
X80137000Y-121992017D01*
X80137000Y-120954435D01*
X86844040Y-120954435D01*
X87630000Y-121740395D01*
X88415960Y-120954435D01*
X88348980Y-120714344D01*
X88099952Y-120597244D01*
X87832865Y-120530977D01*
X87557983Y-120518090D01*
X87285867Y-120559078D01*
X87026977Y-120652364D01*
X86911020Y-120714344D01*
X86844040Y-120954435D01*
X80137000Y-120954435D01*
X80137000Y-118008061D01*
X85325000Y-118008061D01*
X85325000Y-118211939D01*
X85364774Y-118411898D01*
X85442795Y-118600256D01*
X85556063Y-118769774D01*
X85700226Y-118913937D01*
X85869744Y-119027205D01*
X86058102Y-119105226D01*
X86258061Y-119145000D01*
X86320199Y-119145000D01*
X87066200Y-119891002D01*
X87089999Y-119920001D01*
X87205724Y-120014974D01*
X87337753Y-120085546D01*
X87481014Y-120129003D01*
X87592667Y-120140000D01*
X87592676Y-120140000D01*
X87629999Y-120143676D01*
X87667322Y-120140000D01*
X89855199Y-120140000D01*
X91343628Y-121628430D01*
X91313000Y-121782408D01*
X91313000Y-122057592D01*
X91366686Y-122327490D01*
X91471995Y-122581727D01*
X91624880Y-122810535D01*
X91819465Y-123005120D01*
X92048273Y-123158005D01*
X92302510Y-123263314D01*
X92572408Y-123317000D01*
X92847592Y-123317000D01*
X93117490Y-123263314D01*
X93371727Y-123158005D01*
X93600535Y-123005120D01*
X93795120Y-122810535D01*
X93948005Y-122581727D01*
X94053314Y-122327490D01*
X94107000Y-122057592D01*
X94107000Y-121782408D01*
X94053314Y-121512510D01*
X93948005Y-121258273D01*
X93795120Y-121029465D01*
X93600535Y-120834880D01*
X93371727Y-120681995D01*
X93117490Y-120576686D01*
X92847592Y-120523000D01*
X92572408Y-120523000D01*
X92418430Y-120553628D01*
X90733804Y-118869003D01*
X90710001Y-118839999D01*
X90594276Y-118745026D01*
X90462247Y-118674454D01*
X90318986Y-118630997D01*
X90207333Y-118620000D01*
X90207322Y-118620000D01*
X90170000Y-118616324D01*
X90132678Y-118620000D01*
X87944802Y-118620000D01*
X87395000Y-118070199D01*
X87395000Y-118008061D01*
X87355226Y-117808102D01*
X87277205Y-117619744D01*
X87163937Y-117450226D01*
X87019774Y-117306063D01*
X86850256Y-117192795D01*
X86661898Y-117114774D01*
X86461939Y-117075000D01*
X86258061Y-117075000D01*
X86058102Y-117114774D01*
X85869744Y-117192795D01*
X85700226Y-117306063D01*
X85556063Y-117450226D01*
X85442795Y-117619744D01*
X85364774Y-117808102D01*
X85325000Y-118008061D01*
X80137000Y-118008061D01*
X80137000Y-115693628D01*
X80354133Y-115660922D01*
X80613023Y-115567636D01*
X80728980Y-115505656D01*
X80795960Y-115265565D01*
X80137000Y-114606605D01*
X80137000Y-114300000D01*
X80189605Y-114300000D01*
X80975565Y-115085960D01*
X81215656Y-115018980D01*
X81332756Y-114769952D01*
X81399023Y-114502865D01*
X81411910Y-114227983D01*
X81402033Y-114162408D01*
X83693000Y-114162408D01*
X83693000Y-114437592D01*
X83746686Y-114707490D01*
X83851995Y-114961727D01*
X84004880Y-115190535D01*
X84199465Y-115385120D01*
X84428273Y-115538005D01*
X84682510Y-115643314D01*
X84952408Y-115697000D01*
X85227592Y-115697000D01*
X85497490Y-115643314D01*
X85751727Y-115538005D01*
X85980535Y-115385120D01*
X86175120Y-115190535D01*
X86262341Y-115060000D01*
X87315199Y-115060000D01*
X89135000Y-116879803D01*
X89135000Y-116941939D01*
X89174774Y-117141898D01*
X89252795Y-117330256D01*
X89366063Y-117499774D01*
X89510226Y-117643937D01*
X89679744Y-117757205D01*
X89868102Y-117835226D01*
X90068061Y-117875000D01*
X90271939Y-117875000D01*
X90471898Y-117835226D01*
X90660256Y-117757205D01*
X90829774Y-117643937D01*
X90973937Y-117499774D01*
X91087205Y-117330256D01*
X91165226Y-117141898D01*
X91205000Y-116941939D01*
X91205000Y-116738061D01*
X91197909Y-116702408D01*
X110363000Y-116702408D01*
X110363000Y-116977592D01*
X110416686Y-117247490D01*
X110521995Y-117501727D01*
X110674880Y-117730535D01*
X110869465Y-117925120D01*
X111098273Y-118078005D01*
X111352510Y-118183314D01*
X111622408Y-118237000D01*
X111897592Y-118237000D01*
X112167490Y-118183314D01*
X112421727Y-118078005D01*
X112650535Y-117925120D01*
X112770090Y-117805565D01*
X116054040Y-117805565D01*
X116121020Y-118045656D01*
X116370048Y-118162756D01*
X116637135Y-118229023D01*
X116912017Y-118241910D01*
X117184133Y-118200922D01*
X117443023Y-118107636D01*
X117558980Y-118045656D01*
X117625960Y-117805565D01*
X116840000Y-117019605D01*
X116054040Y-117805565D01*
X112770090Y-117805565D01*
X112845120Y-117730535D01*
X112998005Y-117501727D01*
X113103314Y-117247490D01*
X113157000Y-116977592D01*
X113157000Y-116912017D01*
X115438090Y-116912017D01*
X115479078Y-117184133D01*
X115572364Y-117443023D01*
X115634344Y-117558980D01*
X115874435Y-117625960D01*
X116660395Y-116840000D01*
X117019605Y-116840000D01*
X117805565Y-117625960D01*
X118045656Y-117558980D01*
X118162756Y-117309952D01*
X118229023Y-117042865D01*
X118241910Y-116767983D01*
X118200922Y-116495867D01*
X118107636Y-116236977D01*
X118045656Y-116121020D01*
X117805565Y-116054040D01*
X117019605Y-116840000D01*
X116660395Y-116840000D01*
X115874435Y-116054040D01*
X115634344Y-116121020D01*
X115517244Y-116370048D01*
X115450977Y-116637135D01*
X115438090Y-116912017D01*
X113157000Y-116912017D01*
X113157000Y-116702408D01*
X113103314Y-116432510D01*
X112998005Y-116178273D01*
X112845120Y-115949465D01*
X112770090Y-115874435D01*
X116054040Y-115874435D01*
X116840000Y-116660395D01*
X117625960Y-115874435D01*
X117558980Y-115634344D01*
X117309952Y-115517244D01*
X117042865Y-115450977D01*
X116767983Y-115438090D01*
X116495867Y-115479078D01*
X116236977Y-115572364D01*
X116121020Y-115634344D01*
X116054040Y-115874435D01*
X112770090Y-115874435D01*
X112650535Y-115754880D01*
X112520000Y-115667659D01*
X112520000Y-113733711D01*
X112563937Y-113689774D01*
X112677205Y-113520256D01*
X112755226Y-113331898D01*
X112795000Y-113131939D01*
X112795000Y-112928061D01*
X112755226Y-112728102D01*
X112677205Y-112539744D01*
X112563937Y-112370226D01*
X112419774Y-112226063D01*
X112250256Y-112112795D01*
X112061898Y-112034774D01*
X111861939Y-111995000D01*
X111658061Y-111995000D01*
X111458102Y-112034774D01*
X111269744Y-112112795D01*
X111100226Y-112226063D01*
X110956063Y-112370226D01*
X110842795Y-112539744D01*
X110764774Y-112728102D01*
X110725000Y-112928061D01*
X110725000Y-113131939D01*
X110764774Y-113331898D01*
X110842795Y-113520256D01*
X110956063Y-113689774D01*
X111000000Y-113733711D01*
X111000001Y-115667659D01*
X110869465Y-115754880D01*
X110674880Y-115949465D01*
X110521995Y-116178273D01*
X110416686Y-116432510D01*
X110363000Y-116702408D01*
X91197909Y-116702408D01*
X91165226Y-116538102D01*
X91087205Y-116349744D01*
X90973937Y-116180226D01*
X90829774Y-116036063D01*
X90660256Y-115922795D01*
X90471898Y-115844774D01*
X90271939Y-115805000D01*
X90209803Y-115805000D01*
X89670368Y-115265565D01*
X94464040Y-115265565D01*
X94531020Y-115505656D01*
X94780048Y-115622756D01*
X95047135Y-115689023D01*
X95322017Y-115701910D01*
X95594133Y-115660922D01*
X95853023Y-115567636D01*
X95968980Y-115505656D01*
X96035960Y-115265565D01*
X95250000Y-114479605D01*
X94464040Y-115265565D01*
X89670368Y-115265565D01*
X88776819Y-114372017D01*
X93848090Y-114372017D01*
X93889078Y-114644133D01*
X93982364Y-114903023D01*
X94044344Y-115018980D01*
X94284435Y-115085960D01*
X95070395Y-114300000D01*
X95429605Y-114300000D01*
X96215565Y-115085960D01*
X96455656Y-115018980D01*
X96572756Y-114769952D01*
X96639023Y-114502865D01*
X96651910Y-114227983D01*
X96642033Y-114162408D01*
X98933000Y-114162408D01*
X98933000Y-114437592D01*
X98986686Y-114707490D01*
X99091995Y-114961727D01*
X99244880Y-115190535D01*
X99439465Y-115385120D01*
X99668273Y-115538005D01*
X99922510Y-115643314D01*
X100192408Y-115697000D01*
X100467592Y-115697000D01*
X100737490Y-115643314D01*
X100991727Y-115538005D01*
X101220535Y-115385120D01*
X101415120Y-115190535D01*
X101568005Y-114961727D01*
X101673314Y-114707490D01*
X101727000Y-114437592D01*
X101727000Y-114162408D01*
X101673314Y-113892510D01*
X101568005Y-113638273D01*
X101415120Y-113409465D01*
X101220535Y-113214880D01*
X101090000Y-113127659D01*
X101090000Y-111622408D01*
X121793000Y-111622408D01*
X121793000Y-111897592D01*
X121846686Y-112167490D01*
X121951995Y-112421727D01*
X122104880Y-112650535D01*
X122299465Y-112845120D01*
X122528273Y-112998005D01*
X122782510Y-113103314D01*
X123052408Y-113157000D01*
X123327592Y-113157000D01*
X123597490Y-113103314D01*
X123851727Y-112998005D01*
X124080535Y-112845120D01*
X124200090Y-112725565D01*
X127484040Y-112725565D01*
X127551020Y-112965656D01*
X127800048Y-113082756D01*
X128067135Y-113149023D01*
X128342017Y-113161910D01*
X128614133Y-113120922D01*
X128873023Y-113027636D01*
X128988980Y-112965656D01*
X129055960Y-112725565D01*
X128270000Y-111939605D01*
X127484040Y-112725565D01*
X124200090Y-112725565D01*
X124275120Y-112650535D01*
X124428005Y-112421727D01*
X124533314Y-112167490D01*
X124587000Y-111897592D01*
X124587000Y-111832017D01*
X126868090Y-111832017D01*
X126909078Y-112104133D01*
X127002364Y-112363023D01*
X127064344Y-112478980D01*
X127304435Y-112545960D01*
X128090395Y-111760000D01*
X128449605Y-111760000D01*
X129235565Y-112545960D01*
X129475656Y-112478980D01*
X129592756Y-112229952D01*
X129659023Y-111962865D01*
X129671910Y-111687983D01*
X129630922Y-111415867D01*
X129537636Y-111156977D01*
X129475656Y-111041020D01*
X129235565Y-110974040D01*
X128449605Y-111760000D01*
X128090395Y-111760000D01*
X127304435Y-110974040D01*
X127064344Y-111041020D01*
X126947244Y-111290048D01*
X126880977Y-111557135D01*
X126868090Y-111832017D01*
X124587000Y-111832017D01*
X124587000Y-111622408D01*
X124533314Y-111352510D01*
X124428005Y-111098273D01*
X124275120Y-110869465D01*
X124200090Y-110794435D01*
X127484040Y-110794435D01*
X128270000Y-111580395D01*
X129055960Y-110794435D01*
X128988980Y-110554344D01*
X128739952Y-110437244D01*
X128472865Y-110370977D01*
X128197983Y-110358090D01*
X127925867Y-110399078D01*
X127666977Y-110492364D01*
X127551020Y-110554344D01*
X127484040Y-110794435D01*
X124200090Y-110794435D01*
X124080535Y-110674880D01*
X123950000Y-110587659D01*
X123950000Y-103573711D01*
X123993937Y-103529774D01*
X124107205Y-103360256D01*
X124185226Y-103171898D01*
X124225000Y-102971939D01*
X124225000Y-102768061D01*
X124185226Y-102568102D01*
X124107205Y-102379744D01*
X123993937Y-102210226D01*
X123849774Y-102066063D01*
X123680256Y-101952795D01*
X123491898Y-101874774D01*
X123291939Y-101835000D01*
X123088061Y-101835000D01*
X122888102Y-101874774D01*
X122699744Y-101952795D01*
X122530226Y-102066063D01*
X122386063Y-102210226D01*
X122272795Y-102379744D01*
X122194774Y-102568102D01*
X122155000Y-102768061D01*
X122155000Y-102971939D01*
X122194774Y-103171898D01*
X122272795Y-103360256D01*
X122386063Y-103529774D01*
X122430000Y-103573711D01*
X122430001Y-110587659D01*
X122299465Y-110674880D01*
X122104880Y-110869465D01*
X121951995Y-111098273D01*
X121846686Y-111352510D01*
X121793000Y-111622408D01*
X101090000Y-111622408D01*
X101090000Y-94683711D01*
X101133937Y-94639774D01*
X101247205Y-94470256D01*
X101325226Y-94281898D01*
X101365000Y-94081939D01*
X101365000Y-93878061D01*
X101325226Y-93678102D01*
X101247205Y-93489744D01*
X101133937Y-93320226D01*
X100989774Y-93176063D01*
X100820256Y-93062795D01*
X100631898Y-92984774D01*
X100431939Y-92945000D01*
X100228061Y-92945000D01*
X100028102Y-92984774D01*
X99839744Y-93062795D01*
X99670226Y-93176063D01*
X99526063Y-93320226D01*
X99412795Y-93489744D01*
X99334774Y-93678102D01*
X99295000Y-93878061D01*
X99295000Y-94081939D01*
X99334774Y-94281898D01*
X99412795Y-94470256D01*
X99526063Y-94639774D01*
X99570000Y-94683711D01*
X99570001Y-113127658D01*
X99439465Y-113214880D01*
X99244880Y-113409465D01*
X99091995Y-113638273D01*
X98986686Y-113892510D01*
X98933000Y-114162408D01*
X96642033Y-114162408D01*
X96610922Y-113955867D01*
X96517636Y-113696977D01*
X96455656Y-113581020D01*
X96215565Y-113514040D01*
X95429605Y-114300000D01*
X95070395Y-114300000D01*
X94284435Y-113514040D01*
X94044344Y-113581020D01*
X93927244Y-113830048D01*
X93860977Y-114097135D01*
X93848090Y-114372017D01*
X88776819Y-114372017D01*
X88193804Y-113789003D01*
X88170001Y-113759999D01*
X88054276Y-113665026D01*
X87922247Y-113594454D01*
X87778986Y-113550997D01*
X87667333Y-113540000D01*
X87667322Y-113540000D01*
X87630000Y-113536324D01*
X87592678Y-113540000D01*
X86262341Y-113540000D01*
X86175120Y-113409465D01*
X86100090Y-113334435D01*
X94464040Y-113334435D01*
X95250000Y-114120395D01*
X96035960Y-113334435D01*
X95968980Y-113094344D01*
X95719952Y-112977244D01*
X95452865Y-112910977D01*
X95177983Y-112898090D01*
X94905867Y-112939078D01*
X94646977Y-113032364D01*
X94531020Y-113094344D01*
X94464040Y-113334435D01*
X86100090Y-113334435D01*
X85980535Y-113214880D01*
X85751727Y-113061995D01*
X85497490Y-112956686D01*
X85227592Y-112903000D01*
X84952408Y-112903000D01*
X84682510Y-112956686D01*
X84428273Y-113061995D01*
X84199465Y-113214880D01*
X84004880Y-113409465D01*
X83851995Y-113638273D01*
X83746686Y-113892510D01*
X83693000Y-114162408D01*
X81402033Y-114162408D01*
X81370922Y-113955867D01*
X81277636Y-113696977D01*
X81215656Y-113581020D01*
X80975565Y-113514040D01*
X80189605Y-114300000D01*
X80137000Y-114300000D01*
X80137000Y-113993395D01*
X80795960Y-113334435D01*
X80728980Y-113094344D01*
X80479952Y-112977244D01*
X80212865Y-112910977D01*
X80137000Y-112907420D01*
X80137000Y-107645565D01*
X86844040Y-107645565D01*
X86911020Y-107885656D01*
X87160048Y-108002756D01*
X87427135Y-108069023D01*
X87702017Y-108081910D01*
X87974133Y-108040922D01*
X88233023Y-107947636D01*
X88348980Y-107885656D01*
X88415960Y-107645565D01*
X87630000Y-106859605D01*
X86844040Y-107645565D01*
X80137000Y-107645565D01*
X80137000Y-106752017D01*
X86228090Y-106752017D01*
X86269078Y-107024133D01*
X86362364Y-107283023D01*
X86424344Y-107398980D01*
X86664435Y-107465960D01*
X87450395Y-106680000D01*
X87809605Y-106680000D01*
X88595565Y-107465960D01*
X88835656Y-107398980D01*
X88952756Y-107149952D01*
X89019023Y-106882865D01*
X89031910Y-106607983D01*
X88990922Y-106335867D01*
X88897636Y-106076977D01*
X88835656Y-105961020D01*
X88595565Y-105894040D01*
X87809605Y-106680000D01*
X87450395Y-106680000D01*
X86664435Y-105894040D01*
X86424344Y-105961020D01*
X86307244Y-106210048D01*
X86240977Y-106477135D01*
X86228090Y-106752017D01*
X80137000Y-106752017D01*
X80137000Y-105429283D01*
X80221331Y-105485631D01*
X80628075Y-105654110D01*
X81059872Y-105740000D01*
X81500128Y-105740000D01*
X81628651Y-105714435D01*
X86844040Y-105714435D01*
X87630000Y-106500395D01*
X88415960Y-105714435D01*
X88348980Y-105474344D01*
X88099952Y-105357244D01*
X87832865Y-105290977D01*
X87557983Y-105278090D01*
X87285867Y-105319078D01*
X87026977Y-105412364D01*
X86911020Y-105474344D01*
X86844040Y-105714435D01*
X81628651Y-105714435D01*
X81931925Y-105654110D01*
X82338669Y-105485631D01*
X82704729Y-105241038D01*
X83016038Y-104929729D01*
X83260631Y-104563669D01*
X83429110Y-104156925D01*
X83515000Y-103725128D01*
X83515000Y-103284872D01*
X83429110Y-102853075D01*
X83260631Y-102446331D01*
X83016038Y-102080271D01*
X82704729Y-101768962D01*
X82338669Y-101524369D01*
X82275156Y-101498061D01*
X89135000Y-101498061D01*
X89135000Y-101701939D01*
X89174774Y-101901898D01*
X89252795Y-102090256D01*
X89366063Y-102259774D01*
X89510226Y-102403937D01*
X89679744Y-102517205D01*
X89868102Y-102595226D01*
X90068061Y-102635000D01*
X90130199Y-102635000D01*
X91950000Y-104454803D01*
X91950001Y-105507659D01*
X91819465Y-105594880D01*
X91624880Y-105789465D01*
X91471995Y-106018273D01*
X91366686Y-106272510D01*
X91313000Y-106542408D01*
X91313000Y-106817592D01*
X91366686Y-107087490D01*
X91471995Y-107341727D01*
X91624880Y-107570535D01*
X91819465Y-107765120D01*
X92048273Y-107918005D01*
X92302510Y-108023314D01*
X92572408Y-108077000D01*
X92847592Y-108077000D01*
X93117490Y-108023314D01*
X93371727Y-107918005D01*
X93600535Y-107765120D01*
X93795120Y-107570535D01*
X93948005Y-107341727D01*
X94053314Y-107087490D01*
X94107000Y-106817592D01*
X94107000Y-106542408D01*
X94053314Y-106272510D01*
X93948005Y-106018273D01*
X93795120Y-105789465D01*
X93600535Y-105594880D01*
X93470000Y-105507659D01*
X93470000Y-104177322D01*
X93473676Y-104139999D01*
X93470000Y-104102676D01*
X93470000Y-104102667D01*
X93459003Y-103991014D01*
X93415546Y-103847753D01*
X93344974Y-103715724D01*
X93331811Y-103699685D01*
X93273799Y-103628996D01*
X93273795Y-103628992D01*
X93250001Y-103599999D01*
X93221009Y-103576206D01*
X91205000Y-101560199D01*
X91205000Y-101498061D01*
X91165226Y-101298102D01*
X91087205Y-101109744D01*
X90973937Y-100940226D01*
X90829774Y-100796063D01*
X90660256Y-100682795D01*
X90471898Y-100604774D01*
X90271939Y-100565000D01*
X90068061Y-100565000D01*
X89868102Y-100604774D01*
X89679744Y-100682795D01*
X89510226Y-100796063D01*
X89366063Y-100940226D01*
X89252795Y-101109744D01*
X89174774Y-101298102D01*
X89135000Y-101498061D01*
X82275156Y-101498061D01*
X81931925Y-101355890D01*
X81500128Y-101270000D01*
X81059872Y-101270000D01*
X80628075Y-101355890D01*
X80221331Y-101524369D01*
X80137000Y-101580717D01*
X80137000Y-78958072D01*
X83630000Y-78958072D01*
X83754482Y-78945812D01*
X83874180Y-78909502D01*
X83984494Y-78850537D01*
X84081185Y-78771185D01*
X84160537Y-78674494D01*
X84219502Y-78564180D01*
X84255812Y-78444482D01*
X84268072Y-78320000D01*
X84268072Y-76620000D01*
X84255812Y-76495518D01*
X84219502Y-76375820D01*
X84160537Y-76265506D01*
X84106778Y-76200000D01*
X84160537Y-76134494D01*
X84219502Y-76024180D01*
X84255812Y-75904482D01*
X84268072Y-75780000D01*
X84268072Y-74080000D01*
X84255812Y-73955518D01*
X84219502Y-73835820D01*
X84160537Y-73725506D01*
X84106778Y-73660000D01*
X84160537Y-73594494D01*
X84219502Y-73484180D01*
X84255812Y-73364482D01*
X84268072Y-73240000D01*
X84268072Y-71540000D01*
X84255812Y-71415518D01*
X84219502Y-71295820D01*
X84160537Y-71185506D01*
X84081185Y-71088815D01*
X83984494Y-71009463D01*
X83874180Y-70950498D01*
X83754482Y-70914188D01*
X83630000Y-70901928D01*
X80137000Y-70901928D01*
X80137000Y-61087000D01*
X82550000Y-61087000D01*
X82574776Y-61084560D01*
X82598601Y-61077333D01*
X82620557Y-61065597D01*
X82639803Y-61049803D01*
X83909803Y-59779803D01*
X83925597Y-59760557D01*
X83937333Y-59738601D01*
X83944560Y-59714776D01*
X83947000Y-59690000D01*
X83947000Y-59270000D01*
X95031928Y-59270000D01*
X95044188Y-59394482D01*
X95080498Y-59514180D01*
X95139463Y-59624494D01*
X95218815Y-59721185D01*
X95315506Y-59800537D01*
X95425820Y-59859502D01*
X95545518Y-59895812D01*
X95670000Y-59908072D01*
X96234250Y-59905000D01*
X96393000Y-59746250D01*
X96393000Y-58547000D01*
X95193750Y-58547000D01*
X95035000Y-58705750D01*
X95031928Y-59270000D01*
X83947000Y-59270000D01*
X83947000Y-57277000D01*
X95106593Y-57277000D01*
X95080498Y-57325820D01*
%TA.AperFunction,Conductor*%
D24*
G36*
X95080498Y-57325820D02*
G01*
X95044188Y-57445518D01*
X95031928Y-57570000D01*
X95035000Y-58134250D01*
X95193750Y-58293000D01*
X96393000Y-58293000D01*
X96393000Y-58273000D01*
X96647000Y-58273000D01*
X96647000Y-58293000D01*
X96667000Y-58293000D01*
X96667000Y-58547000D01*
X96647000Y-58547000D01*
X96647000Y-59746250D01*
X96805750Y-59905000D01*
X97370000Y-59908072D01*
X97494482Y-59895812D01*
X97614180Y-59859502D01*
X97724494Y-59800537D01*
X97821185Y-59721185D01*
X97900537Y-59624494D01*
X97959502Y-59514180D01*
X97981513Y-59441620D01*
X98113368Y-59573475D01*
X98300000Y-59698179D01*
X98300001Y-62751928D01*
X96940000Y-62751928D01*
X96815518Y-62764188D01*
X96695820Y-62800498D01*
X96585506Y-62859463D01*
X96520000Y-62913222D01*
X96454494Y-62859463D01*
X96344180Y-62800498D01*
X96224482Y-62764188D01*
X96100000Y-62751928D01*
X94400000Y-62751928D01*
X94275518Y-62764188D01*
X94155820Y-62800498D01*
X94045506Y-62859463D01*
X93980000Y-62913222D01*
X93914494Y-62859463D01*
X93804180Y-62800498D01*
X93684482Y-62764188D01*
X93560000Y-62751928D01*
X91860000Y-62751928D01*
X91735518Y-62764188D01*
X91615820Y-62800498D01*
X91505506Y-62859463D01*
X91440000Y-62913222D01*
X91374494Y-62859463D01*
X91264180Y-62800498D01*
X91144482Y-62764188D01*
X91020000Y-62751928D01*
X89320000Y-62751928D01*
X89195518Y-62764188D01*
X89075820Y-62800498D01*
X88965506Y-62859463D01*
X88900000Y-62913222D01*
X88834494Y-62859463D01*
X88724180Y-62800498D01*
X88604482Y-62764188D01*
X88480000Y-62751928D01*
X86780000Y-62751928D01*
X86655518Y-62764188D01*
X86535820Y-62800498D01*
X86425506Y-62859463D01*
X86360000Y-62913222D01*
X86294494Y-62859463D01*
X86184180Y-62800498D01*
X86064482Y-62764188D01*
X85940000Y-62751928D01*
X84240000Y-62751928D01*
X84115518Y-62764188D01*
X83995820Y-62800498D01*
X83885506Y-62859463D01*
X83820000Y-62913222D01*
X83754494Y-62859463D01*
X83644180Y-62800498D01*
X83524482Y-62764188D01*
X83400000Y-62751928D01*
X81700000Y-62751928D01*
X81575518Y-62764188D01*
X81455820Y-62800498D01*
X81345506Y-62859463D01*
X81248815Y-62938815D01*
X81169463Y-63035506D01*
X81110498Y-63145820D01*
X81074188Y-63265518D01*
X81061928Y-63390000D01*
X81061928Y-66890000D01*
X81074188Y-67014482D01*
X81110498Y-67134180D01*
X81169463Y-67244494D01*
X81248815Y-67341185D01*
X81345506Y-67420537D01*
X81455820Y-67479502D01*
X81575518Y-67515812D01*
X81700000Y-67528072D01*
X83400000Y-67528072D01*
X83524482Y-67515812D01*
X83644180Y-67479502D01*
X83754494Y-67420537D01*
X83820000Y-67366778D01*
X83885506Y-67420537D01*
X83995820Y-67479502D01*
X84115518Y-67515812D01*
X84240000Y-67528072D01*
X85940000Y-67528072D01*
X86064482Y-67515812D01*
X86184180Y-67479502D01*
X86294494Y-67420537D01*
X86360000Y-67366778D01*
X86425506Y-67420537D01*
X86535820Y-67479502D01*
X86655518Y-67515812D01*
X86780000Y-67528072D01*
X88480000Y-67528072D01*
X88604482Y-67515812D01*
X88724180Y-67479502D01*
X88834494Y-67420537D01*
X88900000Y-67366778D01*
X88965506Y-67420537D01*
X89075820Y-67479502D01*
X89195518Y-67515812D01*
X89320000Y-67528072D01*
X91020000Y-67528072D01*
X91144482Y-67515812D01*
X91264180Y-67479502D01*
X91374494Y-67420537D01*
X91440000Y-67366778D01*
X91505506Y-67420537D01*
X91615820Y-67479502D01*
X91735518Y-67515812D01*
X91860000Y-67528072D01*
X93560000Y-67528072D01*
X93684482Y-67515812D01*
X93804180Y-67479502D01*
X93914494Y-67420537D01*
X93980000Y-67366778D01*
X94045506Y-67420537D01*
X94155820Y-67479502D01*
X94275518Y-67515812D01*
X94400000Y-67528072D01*
X96100000Y-67528072D01*
X96224482Y-67515812D01*
X96344180Y-67479502D01*
X96454494Y-67420537D01*
X96520000Y-67366778D01*
X96585506Y-67420537D01*
X96695820Y-67479502D01*
X96815518Y-67515812D01*
X96940000Y-67528072D01*
X98300000Y-67528072D01*
X98300001Y-69146288D01*
X98256063Y-69190226D01*
X98142795Y-69359744D01*
X98064774Y-69548102D01*
X98025000Y-69748061D01*
X98025000Y-69951939D01*
X98064774Y-70151898D01*
X98142795Y-70340256D01*
X98256063Y-70509774D01*
X98400226Y-70653937D01*
X98569744Y-70767205D01*
X98758102Y-70845226D01*
X98958061Y-70885000D01*
X99161939Y-70885000D01*
X99361898Y-70845226D01*
X99550256Y-70767205D01*
X99719774Y-70653937D01*
X99863937Y-70509774D01*
X99977205Y-70340256D01*
X100055226Y-70151898D01*
X100095000Y-69951939D01*
X100095000Y-69748061D01*
X100055226Y-69548102D01*
X99977205Y-69359744D01*
X99863937Y-69190226D01*
X99820000Y-69146289D01*
X99820000Y-67528072D01*
X100840001Y-67528072D01*
X100840001Y-74615196D01*
X98745199Y-76710000D01*
X92143711Y-76710000D01*
X92099774Y-76666063D01*
X91930256Y-76552795D01*
X91741898Y-76474774D01*
X91541939Y-76435000D01*
X91338061Y-76435000D01*
X91138102Y-76474774D01*
X90949744Y-76552795D01*
X90780226Y-76666063D01*
X90636063Y-76810226D01*
X90522795Y-76979744D01*
X90444774Y-77168102D01*
X90405000Y-77368061D01*
X90405000Y-77571939D01*
X90444774Y-77771898D01*
X90522795Y-77960256D01*
X90636063Y-78129774D01*
X90780226Y-78273937D01*
X90949744Y-78387205D01*
X91138102Y-78465226D01*
X91338061Y-78505000D01*
X91541939Y-78505000D01*
X91741898Y-78465226D01*
X91930256Y-78387205D01*
X92099774Y-78273937D01*
X92143711Y-78230000D01*
X99022678Y-78230000D01*
X99060000Y-78233676D01*
X99097322Y-78230000D01*
X99097333Y-78230000D01*
X99208986Y-78219003D01*
X99352247Y-78175546D01*
X99484276Y-78104974D01*
X99600001Y-78010001D01*
X99623804Y-77980997D01*
X102111008Y-75493795D01*
X102140001Y-75470001D01*
X102163795Y-75441008D01*
X102163799Y-75441004D01*
X102234973Y-75354277D01*
X102234974Y-75354276D01*
X102305546Y-75222247D01*
X102349003Y-75078986D01*
X102360000Y-74967333D01*
X102360000Y-74967324D01*
X102363676Y-74930001D01*
X102360000Y-74892678D01*
X102360000Y-67528072D01*
X103380000Y-67528072D01*
X103380001Y-78036288D01*
X103336063Y-78080226D01*
X103222795Y-78249744D01*
X103144774Y-78438102D01*
X103105000Y-78638061D01*
X103105000Y-78841939D01*
X103144774Y-79041898D01*
X103222795Y-79230256D01*
X103336063Y-79399774D01*
X103480226Y-79543937D01*
X103649744Y-79657205D01*
X103838102Y-79735226D01*
X104038061Y-79775000D01*
X104241939Y-79775000D01*
X104441898Y-79735226D01*
X104630256Y-79657205D01*
X104799774Y-79543937D01*
X104943937Y-79399774D01*
X105057205Y-79230256D01*
X105135226Y-79041898D01*
X105175000Y-78841939D01*
X105175000Y-78638061D01*
X105135226Y-78438102D01*
X105057205Y-78249744D01*
X104943937Y-78080226D01*
X104900000Y-78036289D01*
X104900000Y-67528072D01*
X105920001Y-67528072D01*
X105920001Y-71686288D01*
X105876063Y-71730226D01*
X105762795Y-71899744D01*
X105684774Y-72088102D01*
X105645000Y-72288061D01*
X105645000Y-72491939D01*
X105684774Y-72691898D01*
X105762795Y-72880256D01*
X105876063Y-73049774D01*
X106020226Y-73193937D01*
X106189744Y-73307205D01*
X106378102Y-73385226D01*
X106578061Y-73425000D01*
X106781939Y-73425000D01*
X106981898Y-73385226D01*
X107170256Y-73307205D01*
X107339774Y-73193937D01*
X107483937Y-73049774D01*
X107597205Y-72880256D01*
X107675226Y-72691898D01*
X107715000Y-72491939D01*
X107715000Y-72288061D01*
X107675226Y-72088102D01*
X107597205Y-71899744D01*
X107483937Y-71730226D01*
X107440000Y-71686289D01*
X107440000Y-67528072D01*
X108460001Y-67528072D01*
X108460001Y-74226288D01*
X108416063Y-74270226D01*
X108302795Y-74439744D01*
X108224774Y-74628102D01*
X108185000Y-74828061D01*
X108185000Y-75031939D01*
X108224774Y-75231898D01*
X108302795Y-75420256D01*
X108416063Y-75589774D01*
X108560226Y-75733937D01*
X108729744Y-75847205D01*
X108918102Y-75925226D01*
X109118061Y-75965000D01*
X109321939Y-75965000D01*
X109521898Y-75925226D01*
X109710256Y-75847205D01*
X109879774Y-75733937D01*
X110023937Y-75589774D01*
X110137205Y-75420256D01*
X110215226Y-75231898D01*
X110255000Y-75031939D01*
X110255000Y-74828061D01*
X110215226Y-74628102D01*
X110137205Y-74439744D01*
X110023937Y-74270226D01*
X109980000Y-74226289D01*
X109980000Y-67528072D01*
X111000001Y-67528072D01*
X111000001Y-68345660D01*
X111000000Y-68345670D01*
X111000001Y-78425197D01*
X110450199Y-78975000D01*
X110388061Y-78975000D01*
X110188102Y-79014774D01*
X109999744Y-79092795D01*
X109830226Y-79206063D01*
X109686063Y-79350226D01*
X109572795Y-79519744D01*
X109494774Y-79708102D01*
X109455000Y-79908061D01*
X109455000Y-80111939D01*
X109494774Y-80311898D01*
X109572795Y-80500256D01*
X109686063Y-80669774D01*
X109830226Y-80813937D01*
X109999744Y-80927205D01*
X110188102Y-81005226D01*
X110388061Y-81045000D01*
X110591939Y-81045000D01*
X110791898Y-81005226D01*
X110980256Y-80927205D01*
X111149774Y-80813937D01*
X111293937Y-80669774D01*
X111407205Y-80500256D01*
X111485226Y-80311898D01*
X111525000Y-80111939D01*
X111525000Y-80049801D01*
X112271003Y-79303799D01*
X112300001Y-79280001D01*
X112394974Y-79164276D01*
X112465546Y-79032247D01*
X112509003Y-78888986D01*
X112520000Y-78777333D01*
X112520000Y-78777324D01*
X112523676Y-78740001D01*
X112520000Y-78702678D01*
X112520000Y-77218589D01*
X126265000Y-77218589D01*
X126265000Y-77491411D01*
X126318225Y-77758989D01*
X126422629Y-78011043D01*
X126574201Y-78237886D01*
X126767114Y-78430799D01*
X126993957Y-78582371D01*
X127246011Y-78686775D01*
X127513589Y-78740000D01*
X127786411Y-78740000D01*
X128053989Y-78686775D01*
X128306043Y-78582371D01*
X128532886Y-78430799D01*
X128725799Y-78237886D01*
X128877371Y-78011043D01*
X128981775Y-77758989D01*
X129035000Y-77491411D01*
X129035000Y-77218589D01*
X128981775Y-76951011D01*
X128877371Y-76698957D01*
X128725799Y-76472114D01*
X128532886Y-76279201D01*
X128306043Y-76127629D01*
X128053989Y-76023225D01*
X127786411Y-75970000D01*
X127513589Y-75970000D01*
X127246011Y-76023225D01*
X126993957Y-76127629D01*
X126767114Y-76279201D01*
X126574201Y-76472114D01*
X126422629Y-76698957D01*
X126318225Y-76951011D01*
X126265000Y-77218589D01*
X112520000Y-77218589D01*
X112520000Y-72368589D01*
X126265000Y-72368589D01*
X126265000Y-72641411D01*
X126318225Y-72908989D01*
X126422629Y-73161043D01*
X126574201Y-73387886D01*
X126767114Y-73580799D01*
X126993957Y-73732371D01*
X127246011Y-73836775D01*
X127513589Y-73890000D01*
X127786411Y-73890000D01*
X128053989Y-73836775D01*
X128306043Y-73732371D01*
X128532886Y-73580799D01*
X128725799Y-73387886D01*
X128877371Y-73161043D01*
X128981775Y-72908989D01*
X129035000Y-72641411D01*
X129035000Y-72368589D01*
X128981775Y-72101011D01*
X128877371Y-71848957D01*
X128725799Y-71622114D01*
X128532886Y-71429201D01*
X128306043Y-71277629D01*
X128053989Y-71173225D01*
X127786411Y-71120000D01*
X127513589Y-71120000D01*
X127246011Y-71173225D01*
X126993957Y-71277629D01*
X126767114Y-71429201D01*
X126574201Y-71622114D01*
X126422629Y-71848957D01*
X126318225Y-72101011D01*
X126265000Y-72368589D01*
X112520000Y-72368589D01*
X112520000Y-67528072D01*
X113880000Y-67528072D01*
X114004482Y-67515812D01*
X114124180Y-67479502D01*
X114234494Y-67420537D01*
X114300000Y-67366778D01*
X114365506Y-67420537D01*
X114475820Y-67479502D01*
X114595518Y-67515812D01*
X114720000Y-67528072D01*
X116420000Y-67528072D01*
X116544482Y-67515812D01*
X116664180Y-67479502D01*
X116774494Y-67420537D01*
X116840000Y-67366778D01*
X116905506Y-67420537D01*
X117015820Y-67479502D01*
X117135518Y-67515812D01*
X117260000Y-67528072D01*
X118960000Y-67528072D01*
X119084482Y-67515812D01*
X119204180Y-67479502D01*
X119314494Y-67420537D01*
X119380000Y-67366778D01*
X119445506Y-67420537D01*
X119555820Y-67479502D01*
X119675518Y-67515812D01*
X119800000Y-67528072D01*
X121500000Y-67528072D01*
X121624482Y-67515812D01*
X121744180Y-67479502D01*
X121854494Y-67420537D01*
X121920000Y-67366778D01*
X121985506Y-67420537D01*
X122095820Y-67479502D01*
X122215518Y-67515812D01*
X122340000Y-67528072D01*
X124040000Y-67528072D01*
X124164482Y-67515812D01*
X124284180Y-67479502D01*
X124394494Y-67420537D01*
X124460000Y-67366778D01*
X124525506Y-67420537D01*
X124635820Y-67479502D01*
X124755518Y-67515812D01*
X124880000Y-67528072D01*
X125444250Y-67525000D01*
X125603000Y-67366250D01*
X125603000Y-62913750D01*
X125444250Y-62755000D01*
X124880000Y-62751928D01*
X124755518Y-62764188D01*
X124635820Y-62800498D01*
X124525506Y-62859463D01*
X124460000Y-62913222D01*
X124394494Y-62859463D01*
X124284180Y-62800498D01*
X124164482Y-62764188D01*
X124040000Y-62751928D01*
X122340000Y-62751928D01*
X122215518Y-62764188D01*
X122095820Y-62800498D01*
X121985506Y-62859463D01*
X121920000Y-62913222D01*
X121854494Y-62859463D01*
X121744180Y-62800498D01*
X121624482Y-62764188D01*
X121500000Y-62751928D01*
X119800000Y-62751928D01*
X119675518Y-62764188D01*
X119555820Y-62800498D01*
X119445506Y-62859463D01*
X119380000Y-62913222D01*
X119314494Y-62859463D01*
X119204180Y-62800498D01*
X119084482Y-62764188D01*
X118960000Y-62751928D01*
X117260000Y-62751928D01*
X117135518Y-62764188D01*
X117015820Y-62800498D01*
X116905506Y-62859463D01*
X116840000Y-62913222D01*
X116774494Y-62859463D01*
X116664180Y-62800498D01*
X116544482Y-62764188D01*
X116420000Y-62751928D01*
X114720000Y-62751928D01*
X114595518Y-62764188D01*
X114475820Y-62800498D01*
X114365506Y-62859463D01*
X114300000Y-62913222D01*
X114234494Y-62859463D01*
X114124180Y-62800498D01*
X114004482Y-62764188D01*
X113880000Y-62751928D01*
X112520000Y-62751928D01*
X112520000Y-59698178D01*
X112706632Y-59573475D01*
X112913475Y-59366632D01*
X113030000Y-59192240D01*
X113146525Y-59366632D01*
X113353368Y-59573475D01*
X113596589Y-59735990D01*
X113866842Y-59847932D01*
X114153740Y-59905000D01*
X114446260Y-59905000D01*
X114733158Y-59847932D01*
X115003411Y-59735990D01*
X115246632Y-59573475D01*
X115453475Y-59366632D01*
X115615990Y-59123411D01*
X115727932Y-58853158D01*
X115785000Y-58566260D01*
X115785000Y-58273740D01*
X115727932Y-57986842D01*
X115615990Y-57716589D01*
X115453475Y-57473368D01*
X115257107Y-57277000D01*
X126873000Y-57277000D01*
X126873000Y-59690000D01*
X126875440Y-59714776D01*
X126882667Y-59738601D01*
X126894403Y-59760557D01*
X126910197Y-59779803D01*
X128180197Y-61049803D01*
X128199443Y-61065597D01*
X128221399Y-61077333D01*
X128245224Y-61084560D01*
X128270000Y-61087000D01*
X130683000Y-61087000D01*
X130683000Y-62751928D01*
X129960000Y-62751928D01*
X129835518Y-62764188D01*
X129715820Y-62800498D01*
X129605506Y-62859463D01*
X129540000Y-62913222D01*
X129474494Y-62859463D01*
X129364180Y-62800498D01*
X129244482Y-62764188D01*
X129120000Y-62751928D01*
X127420000Y-62751928D01*
X127295518Y-62764188D01*
X127175820Y-62800498D01*
X127065506Y-62859463D01*
X127000000Y-62913222D01*
X126934494Y-62859463D01*
X126824180Y-62800498D01*
X126704482Y-62764188D01*
X126580000Y-62751928D01*
X126015750Y-62755000D01*
X125857000Y-62913750D01*
X125857000Y-67366250D01*
X126015750Y-67525000D01*
X126580000Y-67528072D01*
X126704482Y-67515812D01*
X126824180Y-67479502D01*
X126934494Y-67420537D01*
X127000000Y-67366778D01*
X127065506Y-67420537D01*
X127175820Y-67479502D01*
X127295518Y-67515812D01*
X127420000Y-67528072D01*
X129120000Y-67528072D01*
X129244482Y-67515812D01*
X129364180Y-67479502D01*
X129474494Y-67420537D01*
X129540000Y-67366778D01*
X129605506Y-67420537D01*
X129715820Y-67479502D01*
X129835518Y-67515812D01*
X129960000Y-67528072D01*
X130683000Y-67528072D01*
X130683000Y-70670000D01*
X130528816Y-70670000D01*
X130232257Y-70728989D01*
X129952905Y-70844701D01*
X129701495Y-71012688D01*
X129487688Y-71226495D01*
X129319701Y-71477905D01*
X129203989Y-71757257D01*
X129145000Y-72053816D01*
X129145000Y-72356184D01*
X129203989Y-72652743D01*
X129319701Y-72932095D01*
X129487688Y-73183505D01*
X129701495Y-73397312D01*
X129952905Y-73565299D01*
X130232257Y-73681011D01*
X130528816Y-73740000D01*
X130683000Y-73740000D01*
X130683000Y-76120000D01*
X130528816Y-76120000D01*
X130232257Y-76178989D01*
X129952905Y-76294701D01*
X129701495Y-76462688D01*
X129487688Y-76676495D01*
X129319701Y-76927905D01*
X129203989Y-77207257D01*
X129145000Y-77503816D01*
X129145000Y-77806184D01*
X129203989Y-78102743D01*
X129319701Y-78382095D01*
X129487688Y-78633505D01*
X129701495Y-78847312D01*
X129952905Y-79015299D01*
X130232257Y-79131011D01*
X130528816Y-79190000D01*
X130683000Y-79190000D01*
X130683000Y-82331928D01*
X129960000Y-82331928D01*
X129835518Y-82344188D01*
X129715820Y-82380498D01*
X129605506Y-82439463D01*
X129540000Y-82493222D01*
X129474494Y-82439463D01*
X129364180Y-82380498D01*
X129244482Y-82344188D01*
X129120000Y-82331928D01*
X127420000Y-82331928D01*
X127295518Y-82344188D01*
X127175820Y-82380498D01*
X127065506Y-82439463D01*
X127000000Y-82493222D01*
X126934494Y-82439463D01*
X126824180Y-82380498D01*
X126704482Y-82344188D01*
X126580000Y-82331928D01*
X124880000Y-82331928D01*
X124755518Y-82344188D01*
X124635820Y-82380498D01*
X124525506Y-82439463D01*
X124460000Y-82493222D01*
X124394494Y-82439463D01*
X124284180Y-82380498D01*
X124164482Y-82344188D01*
X124040000Y-82331928D01*
X122340000Y-82331928D01*
X122215518Y-82344188D01*
X122095820Y-82380498D01*
X121985506Y-82439463D01*
X121920000Y-82493222D01*
X121854494Y-82439463D01*
X121744180Y-82380498D01*
X121624482Y-82344188D01*
X121500000Y-82331928D01*
X119800000Y-82331928D01*
X119675518Y-82344188D01*
X119555820Y-82380498D01*
X119445506Y-82439463D01*
X119380000Y-82493222D01*
X119314494Y-82439463D01*
X119204180Y-82380498D01*
X119084482Y-82344188D01*
X118960000Y-82331928D01*
X117260000Y-82331928D01*
X117135518Y-82344188D01*
X117015820Y-82380498D01*
X116905506Y-82439463D01*
X116840000Y-82493222D01*
X116774494Y-82439463D01*
X116664180Y-82380498D01*
X116544482Y-82344188D01*
X116420000Y-82331928D01*
X114720000Y-82331928D01*
X114595518Y-82344188D01*
X114475820Y-82380498D01*
X114365506Y-82439463D01*
X114300000Y-82493222D01*
X114234494Y-82439463D01*
X114124180Y-82380498D01*
X114004482Y-82344188D01*
X113880000Y-82331928D01*
X112180000Y-82331928D01*
X112055518Y-82344188D01*
X111935820Y-82380498D01*
X111825506Y-82439463D01*
X111760000Y-82493222D01*
X111694494Y-82439463D01*
X111584180Y-82380498D01*
X111464482Y-82344188D01*
X111340000Y-82331928D01*
X109640000Y-82331928D01*
X109515518Y-82344188D01*
X109395820Y-82380498D01*
X109285506Y-82439463D01*
X109220000Y-82493222D01*
X109154494Y-82439463D01*
X109044180Y-82380498D01*
X108924482Y-82344188D01*
X108800000Y-82331928D01*
X107100000Y-82331928D01*
X106975518Y-82344188D01*
X106855820Y-82380498D01*
X106745506Y-82439463D01*
X106680000Y-82493222D01*
X106614494Y-82439463D01*
X106504180Y-82380498D01*
X106384482Y-82344188D01*
X106260000Y-82331928D01*
X104560000Y-82331928D01*
X104435518Y-82344188D01*
X104315820Y-82380498D01*
X104205506Y-82439463D01*
X104140000Y-82493222D01*
X104074494Y-82439463D01*
X103964180Y-82380498D01*
X103844482Y-82344188D01*
X103720000Y-82331928D01*
X102020000Y-82331928D01*
X101895518Y-82344188D01*
X101775820Y-82380498D01*
X101665506Y-82439463D01*
X101600000Y-82493222D01*
X101534494Y-82439463D01*
X101424180Y-82380498D01*
X101304482Y-82344188D01*
X101180000Y-82331928D01*
X99480000Y-82331928D01*
X99355518Y-82344188D01*
X99235820Y-82380498D01*
X99125506Y-82439463D01*
X99060000Y-82493222D01*
X98994494Y-82439463D01*
X98884180Y-82380498D01*
X98764482Y-82344188D01*
X98640000Y-82331928D01*
X96940000Y-82331928D01*
X96815518Y-82344188D01*
X96695820Y-82380498D01*
X96585506Y-82439463D01*
X96520000Y-82493222D01*
X96454494Y-82439463D01*
X96344180Y-82380498D01*
X96224482Y-82344188D01*
X96100000Y-82331928D01*
X94400000Y-82331928D01*
X94275518Y-82344188D01*
X94155820Y-82380498D01*
X94045506Y-82439463D01*
X93980000Y-82493222D01*
X93914494Y-82439463D01*
X93804180Y-82380498D01*
X93684482Y-82344188D01*
X93560000Y-82331928D01*
X91860000Y-82331928D01*
X91735518Y-82344188D01*
X91615820Y-82380498D01*
X91505506Y-82439463D01*
X91440000Y-82493222D01*
X91374494Y-82439463D01*
X91264180Y-82380498D01*
X91144482Y-82344188D01*
X91020000Y-82331928D01*
X89320000Y-82331928D01*
X89195518Y-82344188D01*
X89075820Y-82380498D01*
X88965506Y-82439463D01*
X88900000Y-82493222D01*
X88834494Y-82439463D01*
X88724180Y-82380498D01*
X88604482Y-82344188D01*
X88480000Y-82331928D01*
X86780000Y-82331928D01*
X86655518Y-82344188D01*
X86535820Y-82380498D01*
X86425506Y-82439463D01*
X86360000Y-82493222D01*
X86294494Y-82439463D01*
X86184180Y-82380498D01*
X86064482Y-82344188D01*
X85940000Y-82331928D01*
X84240000Y-82331928D01*
X84115518Y-82344188D01*
X83995820Y-82380498D01*
X83885506Y-82439463D01*
X83820000Y-82493222D01*
X83754494Y-82439463D01*
X83644180Y-82380498D01*
X83524482Y-82344188D01*
X83400000Y-82331928D01*
X81700000Y-82331928D01*
X81575518Y-82344188D01*
X81455820Y-82380498D01*
X81345506Y-82439463D01*
X81248815Y-82518815D01*
X81169463Y-82615506D01*
X81110498Y-82725820D01*
X81074188Y-82845518D01*
X81061928Y-82970000D01*
X81061928Y-86470000D01*
X81074188Y-86594482D01*
X81110498Y-86714180D01*
X81169463Y-86824494D01*
X81248815Y-86921185D01*
X81345506Y-87000537D01*
X81455820Y-87059502D01*
X81575518Y-87095812D01*
X81700000Y-87108072D01*
X83400000Y-87108072D01*
X83524482Y-87095812D01*
X83644180Y-87059502D01*
X83754494Y-87000537D01*
X83820000Y-86946778D01*
X83885506Y-87000537D01*
X83995820Y-87059502D01*
X84115518Y-87095812D01*
X84240000Y-87108072D01*
X85940000Y-87108072D01*
X86064482Y-87095812D01*
X86184180Y-87059502D01*
X86294494Y-87000537D01*
X86360000Y-86946778D01*
X86425506Y-87000537D01*
X86535820Y-87059502D01*
X86655518Y-87095812D01*
X86780000Y-87108072D01*
X88480000Y-87108072D01*
X88604482Y-87095812D01*
X88724180Y-87059502D01*
X88834494Y-87000537D01*
X88900000Y-86946778D01*
X88965506Y-87000537D01*
X89075820Y-87059502D01*
X89195518Y-87095812D01*
X89320000Y-87108072D01*
X91020000Y-87108072D01*
X91144482Y-87095812D01*
X91264180Y-87059502D01*
X91374494Y-87000537D01*
X91440000Y-86946778D01*
X91505506Y-87000537D01*
X91615820Y-87059502D01*
X91735518Y-87095812D01*
X91860000Y-87108072D01*
X93560000Y-87108072D01*
X93684482Y-87095812D01*
X93804180Y-87059502D01*
X93914494Y-87000537D01*
X93980000Y-86946778D01*
X94045506Y-87000537D01*
X94155820Y-87059502D01*
X94275518Y-87095812D01*
X94400000Y-87108072D01*
X96100000Y-87108072D01*
X96224482Y-87095812D01*
X96344180Y-87059502D01*
X96454494Y-87000537D01*
X96520000Y-86946778D01*
X96585506Y-87000537D01*
X96695820Y-87059502D01*
X96815518Y-87095812D01*
X96940000Y-87108072D01*
X98640000Y-87108072D01*
X98764482Y-87095812D01*
X98884180Y-87059502D01*
X98994494Y-87000537D01*
X99060000Y-86946778D01*
X99125506Y-87000537D01*
X99235820Y-87059502D01*
X99355518Y-87095812D01*
X99480000Y-87108072D01*
X101180000Y-87108072D01*
X101304482Y-87095812D01*
X101424180Y-87059502D01*
X101534494Y-87000537D01*
X101600000Y-86946778D01*
X101665506Y-87000537D01*
X101775820Y-87059502D01*
X101895518Y-87095812D01*
X102020000Y-87108072D01*
X103720000Y-87108072D01*
X103844482Y-87095812D01*
X103964180Y-87059502D01*
X104074494Y-87000537D01*
X104140000Y-86946778D01*
X104205506Y-87000537D01*
X104315820Y-87059502D01*
X104435518Y-87095812D01*
X104560000Y-87108072D01*
X106260000Y-87108072D01*
X106384482Y-87095812D01*
X106504180Y-87059502D01*
X106614494Y-87000537D01*
X106680000Y-86946778D01*
X106745506Y-87000537D01*
X106855820Y-87059502D01*
X106975518Y-87095812D01*
X107100000Y-87108072D01*
X108800000Y-87108072D01*
X108924482Y-87095812D01*
X109044180Y-87059502D01*
X109154494Y-87000537D01*
X109220000Y-86946778D01*
X109285506Y-87000537D01*
X109395820Y-87059502D01*
X109515518Y-87095812D01*
X109640000Y-87108072D01*
X111340000Y-87108072D01*
X111464482Y-87095812D01*
X111584180Y-87059502D01*
X111694494Y-87000537D01*
X111760000Y-86946778D01*
X111825506Y-87000537D01*
X111935820Y-87059502D01*
X112055518Y-87095812D01*
X112180000Y-87108072D01*
X113880000Y-87108072D01*
X114004482Y-87095812D01*
X114124180Y-87059502D01*
X114234494Y-87000537D01*
X114300000Y-86946778D01*
X114365506Y-87000537D01*
X114475820Y-87059502D01*
X114595518Y-87095812D01*
X114720000Y-87108072D01*
X116420000Y-87108072D01*
X116544482Y-87095812D01*
X116664180Y-87059502D01*
X116774494Y-87000537D01*
X116840000Y-86946778D01*
X116905506Y-87000537D01*
X117015820Y-87059502D01*
X117135518Y-87095812D01*
X117260000Y-87108072D01*
X118960000Y-87108072D01*
X119084482Y-87095812D01*
X119204180Y-87059502D01*
X119314494Y-87000537D01*
X119380000Y-86946778D01*
X119445506Y-87000537D01*
X119555820Y-87059502D01*
X119675518Y-87095812D01*
X119800000Y-87108072D01*
X121500000Y-87108072D01*
X121624482Y-87095812D01*
X121744180Y-87059502D01*
X121854494Y-87000537D01*
X121920000Y-86946778D01*
X121985506Y-87000537D01*
X122095820Y-87059502D01*
X122215518Y-87095812D01*
X122340000Y-87108072D01*
X124040000Y-87108072D01*
X124164482Y-87095812D01*
X124284180Y-87059502D01*
X124394494Y-87000537D01*
X124460000Y-86946778D01*
X124525506Y-87000537D01*
X124635820Y-87059502D01*
X124755518Y-87095812D01*
X124880000Y-87108072D01*
X126580000Y-87108072D01*
X126704482Y-87095812D01*
X126824180Y-87059502D01*
X126934494Y-87000537D01*
X127000000Y-86946778D01*
X127065506Y-87000537D01*
X127175820Y-87059502D01*
X127295518Y-87095812D01*
X127420000Y-87108072D01*
X129120000Y-87108072D01*
X129244482Y-87095812D01*
X129364180Y-87059502D01*
X129474494Y-87000537D01*
X129540000Y-86946778D01*
X129605506Y-87000537D01*
X129715820Y-87059502D01*
X129835518Y-87095812D01*
X129960000Y-87108072D01*
X130683000Y-87108072D01*
X130683000Y-88121481D01*
X130530119Y-88075105D01*
X130275225Y-88050000D01*
X128804775Y-88050000D01*
X128549881Y-88075105D01*
X128222832Y-88174314D01*
X127921422Y-88335421D01*
X127657234Y-88552234D01*
X127440421Y-88816422D01*
X127279314Y-89117832D01*
X127180105Y-89444881D01*
X127146606Y-89785000D01*
X127180105Y-90125119D01*
X127279314Y-90452168D01*
X127440421Y-90753578D01*
X127657234Y-91017766D01*
X127848994Y-91175139D01*
X127754236Y-91352419D01*
X127675040Y-91613493D01*
X127648299Y-91885000D01*
X127675040Y-92156507D01*
X127754236Y-92417581D01*
X127882843Y-92658188D01*
X128055919Y-92869081D01*
X128075316Y-92885000D01*
X128055919Y-92900919D01*
X127882843Y-93111812D01*
X127754236Y-93352419D01*
X127675040Y-93613493D01*
X127648299Y-93885000D01*
X127675040Y-94156507D01*
X127754236Y-94417581D01*
X127878940Y-94650886D01*
X127838815Y-94683815D01*
X127759463Y-94780506D01*
X127700498Y-94890820D01*
X127664188Y-95010518D01*
X127651928Y-95135000D01*
X127651928Y-96635000D01*
X127663008Y-96747496D01*
X127657234Y-96752234D01*
X127440421Y-97016422D01*
X127279314Y-97317832D01*
X127180105Y-97644881D01*
X127146606Y-97985000D01*
X127180105Y-98325119D01*
X127279314Y-98652168D01*
X127440421Y-98953578D01*
X127657234Y-99217766D01*
X127921422Y-99434579D01*
X128222832Y-99595686D01*
X128549881Y-99694895D01*
X128804775Y-99720000D01*
X130275225Y-99720000D01*
X130530119Y-99694895D01*
X130683000Y-99648519D01*
X130683000Y-101580717D01*
X130598669Y-101524369D01*
X130191925Y-101355890D01*
X129760128Y-101270000D01*
X129319872Y-101270000D01*
X128888075Y-101355890D01*
X128481331Y-101524369D01*
X128115271Y-101768962D01*
X127803962Y-102080271D01*
X127559369Y-102446331D01*
X127390890Y-102853075D01*
X127305000Y-103284872D01*
X127305000Y-103725128D01*
X127390890Y-104156925D01*
X127559369Y-104563669D01*
X127803962Y-104929729D01*
X128115271Y-105241038D01*
X128481331Y-105485631D01*
X128888075Y-105654110D01*
X129319872Y-105740000D01*
X129760128Y-105740000D01*
X130191925Y-105654110D01*
X130598669Y-105485631D01*
X130683000Y-105429283D01*
X130683000Y-121265717D01*
X130598669Y-121209369D01*
X130191925Y-121040890D01*
X129760128Y-120955000D01*
X129319872Y-120955000D01*
X128888075Y-121040890D01*
X128481331Y-121209369D01*
X128115271Y-121453962D01*
X127803962Y-121765271D01*
X127559369Y-122131331D01*
X127390890Y-122538075D01*
X127305000Y-122969872D01*
X127305000Y-123410128D01*
X127390890Y-123841925D01*
X127559369Y-124248669D01*
X127803962Y-124614729D01*
X128115271Y-124926038D01*
X128481331Y-125170631D01*
X128888075Y-125339110D01*
X129319872Y-125425000D01*
X129760128Y-125425000D01*
X130191925Y-125339110D01*
X130598669Y-125170631D01*
X130683000Y-125114283D01*
X130683000Y-133320020D01*
X128165626Y-138354768D01*
X125654768Y-140865626D01*
X120620020Y-143383000D01*
X83947000Y-143383000D01*
X83947000Y-142621000D01*
X85340928Y-142621000D01*
X85353188Y-142745482D01*
X85389498Y-142865180D01*
X85448463Y-142975494D01*
X85527815Y-143072185D01*
X85624506Y-143151537D01*
X85734820Y-143210502D01*
X85854518Y-143246812D01*
X85979000Y-143259072D01*
X86455250Y-143256000D01*
X86614000Y-143097250D01*
X86614000Y-141986000D01*
X86868000Y-141986000D01*
X86868000Y-143097250D01*
X87026750Y-143256000D01*
X87503000Y-143259072D01*
X87627482Y-143246812D01*
X87747180Y-143210502D01*
X87857494Y-143151537D01*
X87954185Y-143072185D01*
X88033537Y-142975494D01*
X88092502Y-142865180D01*
X88128812Y-142745482D01*
X88141072Y-142621000D01*
X108200928Y-142621000D01*
X108213188Y-142745482D01*
X108249498Y-142865180D01*
X108308463Y-142975494D01*
X108387815Y-143072185D01*
X108484506Y-143151537D01*
X108594820Y-143210502D01*
X108714518Y-143246812D01*
X108839000Y-143259072D01*
X109315250Y-143256000D01*
X109474000Y-143097250D01*
X109474000Y-141986000D01*
X109728000Y-141986000D01*
X109728000Y-143097250D01*
X109886750Y-143256000D01*
X110363000Y-143259072D01*
X110487482Y-143246812D01*
X110607180Y-143210502D01*
X110717494Y-143151537D01*
X110814185Y-143072185D01*
X110893537Y-142975494D01*
X110952502Y-142865180D01*
X110988812Y-142745482D01*
X111001072Y-142621000D01*
X110998000Y-142144750D01*
X110839250Y-141986000D01*
X109728000Y-141986000D01*
X109474000Y-141986000D01*
X108362750Y-141986000D01*
X108204000Y-142144750D01*
X108200928Y-142621000D01*
X88141072Y-142621000D01*
X88138000Y-142144750D01*
X87979250Y-141986000D01*
X86868000Y-141986000D01*
X86614000Y-141986000D01*
X85502750Y-141986000D01*
X85344000Y-142144750D01*
X85340928Y-142621000D01*
X83947000Y-142621000D01*
X83947000Y-141097000D01*
X85340928Y-141097000D01*
X85344000Y-141573250D01*
X85502750Y-141732000D01*
X86614000Y-141732000D01*
X86614000Y-140620750D01*
X86868000Y-140620750D01*
X86868000Y-141732000D01*
X87979250Y-141732000D01*
X88138000Y-141573250D01*
X88141072Y-141097000D01*
X108200928Y-141097000D01*
X108204000Y-141573250D01*
X108362750Y-141732000D01*
X109474000Y-141732000D01*
X109474000Y-140620750D01*
X109315250Y-140462000D01*
X108839000Y-140458928D01*
X108714518Y-140471188D01*
X108594820Y-140507498D01*
X108484506Y-140566463D01*
X108387815Y-140645815D01*
X108308463Y-140742506D01*
X108249498Y-140852820D01*
X108213188Y-140972518D01*
X108200928Y-141097000D01*
X88141072Y-141097000D01*
X88128812Y-140972518D01*
X88092502Y-140852820D01*
X88033537Y-140742506D01*
X87954185Y-140645815D01*
X87857494Y-140566463D01*
X87747180Y-140507498D01*
X87627482Y-140471188D01*
X87503000Y-140458928D01*
X87026750Y-140462000D01*
X86868000Y-140620750D01*
X86614000Y-140620750D01*
X86455250Y-140462000D01*
X85979000Y-140458928D01*
X85854518Y-140471188D01*
X85734820Y-140507498D01*
X85624506Y-140566463D01*
X85527815Y-140645815D01*
X85448463Y-140742506D01*
X85389498Y-140852820D01*
X85353188Y-140972518D01*
X85340928Y-141097000D01*
X83947000Y-141097000D01*
X83947000Y-140970000D01*
X83944560Y-140945224D01*
X83937333Y-140921399D01*
X83925597Y-140899443D01*
X83909803Y-140880197D01*
X82639803Y-139610197D01*
X82620557Y-139594403D01*
X82598601Y-139582667D01*
X82574776Y-139575440D01*
X82550000Y-139573000D01*
X80137000Y-139573000D01*
X80137000Y-130048000D01*
X108200928Y-130048000D01*
X108200928Y-131572000D01*
X108213188Y-131696482D01*
X108249498Y-131816180D01*
X108308463Y-131926494D01*
X108387815Y-132023185D01*
X108484506Y-132102537D01*
X108594820Y-132161502D01*
X108714518Y-132197812D01*
X108839000Y-132210072D01*
X109926271Y-132210072D01*
X111000001Y-133283803D01*
X111000000Y-137726289D01*
X110956063Y-137770226D01*
X110906098Y-137845005D01*
X110893537Y-137821506D01*
X110814185Y-137724815D01*
X110717494Y-137645463D01*
X110607180Y-137586498D01*
X110487482Y-137550188D01*
X110363000Y-137537928D01*
X108839000Y-137537928D01*
X108714518Y-137550188D01*
X108594820Y-137586498D01*
X108484506Y-137645463D01*
X108387815Y-137724815D01*
X108308463Y-137821506D01*
X108249498Y-137931820D01*
X108213188Y-138051518D01*
X108200928Y-138176000D01*
X108200928Y-139700000D01*
X108213188Y-139824482D01*
X108249498Y-139944180D01*
X108308463Y-140054494D01*
X108387815Y-140151185D01*
X108484506Y-140230537D01*
X108594820Y-140289502D01*
X108714518Y-140325812D01*
X108839000Y-140338072D01*
X110053271Y-140338072D01*
X110175337Y-140460139D01*
X109886750Y-140462000D01*
X109728000Y-140620750D01*
X109728000Y-141732000D01*
X110839250Y-141732000D01*
X110950220Y-141621030D01*
X110956063Y-141629774D01*
X111100226Y-141773937D01*
X111269744Y-141887205D01*
X111458102Y-141965226D01*
X111658061Y-142005000D01*
X111861939Y-142005000D01*
X112061898Y-141965226D01*
X112250256Y-141887205D01*
X112419774Y-141773937D01*
X112563937Y-141629774D01*
X112677205Y-141460256D01*
X112755226Y-141271898D01*
X112795000Y-141071939D01*
X112795000Y-140868061D01*
X112755226Y-140668102D01*
X112677205Y-140479744D01*
X112563937Y-140310226D01*
X112419774Y-140166063D01*
X112250256Y-140052795D01*
X112061898Y-139974774D01*
X111861939Y-139935000D01*
X111799802Y-139935000D01*
X111001072Y-139136271D01*
X111001072Y-139134783D01*
X111100226Y-139233937D01*
X111269744Y-139347205D01*
X111458102Y-139425226D01*
X111658061Y-139465000D01*
X111861939Y-139465000D01*
X112061898Y-139425226D01*
X112250256Y-139347205D01*
X112419774Y-139233937D01*
X112563937Y-139089774D01*
X112677205Y-138920256D01*
X112755226Y-138731898D01*
X112795000Y-138531939D01*
X112795000Y-138328061D01*
X112755226Y-138128102D01*
X112677205Y-137939744D01*
X112563937Y-137770226D01*
X112520000Y-137726289D01*
X112520000Y-137580000D01*
X112811928Y-137580000D01*
X112811928Y-139280000D01*
X112824188Y-139404482D01*
X112860498Y-139524180D01*
X112919463Y-139634494D01*
X112998815Y-139731185D01*
X113095506Y-139810537D01*
X113205820Y-139869502D01*
X113278380Y-139891513D01*
X113146525Y-140023368D01*
X112984010Y-140266589D01*
X112872068Y-140536842D01*
X112815000Y-140823740D01*
X112815000Y-141116260D01*
X112872068Y-141403158D01*
X112984010Y-141673411D01*
X113146525Y-141916632D01*
X113353368Y-142123475D01*
X113596589Y-142285990D01*
X113866842Y-142397932D01*
X114153740Y-142455000D01*
X114446260Y-142455000D01*
X114733158Y-142397932D01*
X115003411Y-142285990D01*
X115246632Y-142123475D01*
X115453475Y-141916632D01*
X115615990Y-141673411D01*
X115727932Y-141403158D01*
X115785000Y-141116260D01*
X115785000Y-140823740D01*
X115727932Y-140536842D01*
X115615990Y-140266589D01*
X115453475Y-140023368D01*
X115321620Y-139891513D01*
X115394180Y-139869502D01*
X115504494Y-139810537D01*
X115601185Y-139731185D01*
X115680537Y-139634494D01*
X115739502Y-139524180D01*
X115775812Y-139404482D01*
X115788072Y-139280000D01*
X115788072Y-138328061D01*
X119615000Y-138328061D01*
X119615000Y-138531939D01*
X119654774Y-138731898D01*
X119732795Y-138920256D01*
X119846063Y-139089774D01*
X119990226Y-139233937D01*
X120159744Y-139347205D01*
X120348102Y-139425226D01*
X120548061Y-139465000D01*
X120751939Y-139465000D01*
X120951898Y-139425226D01*
X121140256Y-139347205D01*
X121309774Y-139233937D01*
X121353711Y-139190000D01*
X121882678Y-139190000D01*
X121920000Y-139193676D01*
X121957322Y-139190000D01*
X121957333Y-139190000D01*
X122068986Y-139179003D01*
X122212247Y-139135546D01*
X122344276Y-139064974D01*
X122460001Y-138970001D01*
X122483804Y-138940997D01*
X123891004Y-137533798D01*
X123920001Y-137510001D01*
X124014974Y-137394276D01*
X124085546Y-137262247D01*
X124129003Y-137118986D01*
X124140000Y-137007333D01*
X124140000Y-137007323D01*
X124143676Y-136970000D01*
X124140000Y-136932677D01*
X124140000Y-135838043D01*
X124294759Y-135734637D01*
X124494637Y-135534759D01*
X124651680Y-135299727D01*
X124759853Y-135038574D01*
X124815000Y-134761335D01*
X124815000Y-134478665D01*
X124759853Y-134201426D01*
X124651680Y-133940273D01*
X124494637Y-133705241D01*
X124294759Y-133505363D01*
X124059727Y-133348320D01*
X123798574Y-133240147D01*
X123521335Y-133185000D01*
X123238665Y-133185000D01*
X122961426Y-133240147D01*
X122700273Y-133348320D01*
X122465241Y-133505363D01*
X122265363Y-133705241D01*
X122108320Y-133940273D01*
X122000147Y-134201426D01*
X121945000Y-134478665D01*
X121945000Y-134761335D01*
X122000147Y-135038574D01*
X122108320Y-135299727D01*
X122265363Y-135534759D01*
X122465241Y-135734637D01*
X122620000Y-135838044D01*
X122620000Y-136655198D01*
X121605199Y-137670000D01*
X121353711Y-137670000D01*
X121309774Y-137626063D01*
X121140256Y-137512795D01*
X120951898Y-137434774D01*
X120751939Y-137395000D01*
X120548061Y-137395000D01*
X120348102Y-137434774D01*
X120159744Y-137512795D01*
X119990226Y-137626063D01*
X119846063Y-137770226D01*
X119732795Y-137939744D01*
X119654774Y-138128102D01*
X119615000Y-138328061D01*
X115788072Y-138328061D01*
X115788072Y-137580000D01*
X115775812Y-137455518D01*
X115739502Y-137335820D01*
X115680537Y-137225506D01*
X115601185Y-137128815D01*
X115504494Y-137049463D01*
X115394180Y-136990498D01*
X115274482Y-136954188D01*
X115150000Y-136941928D01*
X113450000Y-136941928D01*
X113325518Y-136954188D01*
X113205820Y-136990498D01*
X113095506Y-137049463D01*
X112998815Y-137128815D01*
X112919463Y-137225506D01*
X112860498Y-137335820D01*
X112824188Y-137455518D01*
X112811928Y-137580000D01*
X112520000Y-137580000D01*
X112520000Y-133248061D01*
X113265000Y-133248061D01*
X113265000Y-133451939D01*
X113304774Y-133651898D01*
X113382795Y-133840256D01*
X113496063Y-134009774D01*
X113640226Y-134153937D01*
X113809744Y-134267205D01*
X113998102Y-134345226D01*
X114198061Y-134385000D01*
X114401939Y-134385000D01*
X114601898Y-134345226D01*
X114790256Y-134267205D01*
X114959774Y-134153937D01*
X115003711Y-134110000D01*
X117795199Y-134110000D01*
X117941928Y-134256729D01*
X117941928Y-135420000D01*
X117954188Y-135544482D01*
X117990498Y-135664180D01*
X118049463Y-135774494D01*
X118128815Y-135871185D01*
X118225506Y-135950537D01*
X118335820Y-136009502D01*
X118455518Y-136045812D01*
X118580000Y-136058072D01*
X120180000Y-136058072D01*
X120304482Y-136045812D01*
X120424180Y-136009502D01*
X120534494Y-135950537D01*
X120631185Y-135871185D01*
X120710537Y-135774494D01*
X120769502Y-135664180D01*
X120805812Y-135544482D01*
X120818072Y-135420000D01*
X120818072Y-133820000D01*
X120805812Y-133695518D01*
X120769502Y-133575820D01*
X120710537Y-133465506D01*
X120631185Y-133368815D01*
X120534494Y-133289463D01*
X120424180Y-133230498D01*
X120304482Y-133194188D01*
X120180000Y-133181928D01*
X119016729Y-133181928D01*
X118673804Y-132839003D01*
X118650001Y-132809999D01*
X118534276Y-132715026D01*
X118402247Y-132644454D01*
X118258986Y-132600997D01*
X118147333Y-132590000D01*
X118147322Y-132590000D01*
X118110000Y-132586324D01*
X118072678Y-132590000D01*
X115003711Y-132590000D01*
X114959774Y-132546063D01*
X114790256Y-132432795D01*
X114601898Y-132354774D01*
X114401939Y-132315000D01*
X114198061Y-132315000D01*
X113998102Y-132354774D01*
X113809744Y-132432795D01*
X113640226Y-132546063D01*
X113496063Y-132690226D01*
X113382795Y-132859744D01*
X113304774Y-133048102D01*
X113265000Y-133248061D01*
X112520000Y-133248061D01*
X112520000Y-133006322D01*
X112523676Y-132968999D01*
X112520000Y-132931676D01*
X112520000Y-132931667D01*
X112509003Y-132820014D01*
X112465546Y-132676753D01*
X112395690Y-132546063D01*
X112394974Y-132544723D01*
X112323799Y-132457997D01*
X112300001Y-132428999D01*
X112271003Y-132405201D01*
X111001072Y-131135271D01*
X111001072Y-130048000D01*
X110988812Y-129923518D01*
X110952502Y-129803820D01*
X110893537Y-129693506D01*
X110814185Y-129596815D01*
X110717494Y-129517463D01*
X110607180Y-129458498D01*
X110487482Y-129422188D01*
X110363000Y-129409928D01*
X108839000Y-129409928D01*
X108714518Y-129422188D01*
X108594820Y-129458498D01*
X108484506Y-129517463D01*
X108387815Y-129596815D01*
X108308463Y-129693506D01*
X108249498Y-129803820D01*
X108213188Y-129923518D01*
X108200928Y-130048000D01*
X80137000Y-130048000D01*
X80137000Y-124358061D01*
X82785000Y-124358061D01*
X82785000Y-124561939D01*
X82824774Y-124761898D01*
X82902795Y-124950256D01*
X83016063Y-125119774D01*
X83160226Y-125263937D01*
X83329744Y-125377205D01*
X83518102Y-125455226D01*
X83718061Y-125495000D01*
X83780199Y-125495000D01*
X85347318Y-127062120D01*
X85340928Y-127127000D01*
X85340928Y-128651000D01*
X85353188Y-128775482D01*
X85389498Y-128895180D01*
X85448463Y-129005494D01*
X85527815Y-129102185D01*
X85624506Y-129181537D01*
X85734820Y-129240502D01*
X85854518Y-129276812D01*
X85979000Y-129289072D01*
X87503000Y-129289072D01*
X87627482Y-129276812D01*
X87747180Y-129240502D01*
X87857494Y-129181537D01*
X87954185Y-129102185D01*
X88033537Y-129005494D01*
X88092502Y-128895180D01*
X88128812Y-128775482D01*
X88141072Y-128651000D01*
X88141072Y-127127000D01*
X108200928Y-127127000D01*
X108200928Y-128651000D01*
X108213188Y-128775482D01*
X108249498Y-128895180D01*
X108308463Y-129005494D01*
X108387815Y-129102185D01*
X108484506Y-129181537D01*
X108594820Y-129240502D01*
X108714518Y-129276812D01*
X108839000Y-129289072D01*
X110363000Y-129289072D01*
X110487482Y-129276812D01*
X110607180Y-129240502D01*
X110717494Y-129181537D01*
X110814185Y-129102185D01*
X110893537Y-129005494D01*
X110952502Y-128895180D01*
X110988812Y-128775482D01*
X111001072Y-128651000D01*
X111001072Y-128649000D01*
X118453678Y-128649000D01*
X118491000Y-128652676D01*
X118528322Y-128649000D01*
X118528333Y-128649000D01*
X118639986Y-128638003D01*
X118783247Y-128594546D01*
X118915276Y-128523974D01*
X119031001Y-128429001D01*
X119054803Y-128399998D01*
X119419801Y-128035000D01*
X119481939Y-128035000D01*
X119681898Y-127995226D01*
X119870256Y-127917205D01*
X120039774Y-127803937D01*
X120183937Y-127659774D01*
X120297205Y-127490256D01*
X120375226Y-127301898D01*
X120415000Y-127101939D01*
X120415000Y-126898061D01*
X120375226Y-126698102D01*
X120297205Y-126509744D01*
X120183937Y-126340226D01*
X120039774Y-126196063D01*
X119870256Y-126082795D01*
X119681898Y-126004774D01*
X119481939Y-125965000D01*
X119278061Y-125965000D01*
X119078102Y-126004774D01*
X118889744Y-126082795D01*
X118720226Y-126196063D01*
X118576063Y-126340226D01*
X118462795Y-126509744D01*
X118384774Y-126698102D01*
X118345000Y-126898061D01*
X118345000Y-126960199D01*
X118176199Y-127129000D01*
X111001072Y-127129000D01*
X111001072Y-127127000D01*
X110988812Y-127002518D01*
X110952502Y-126882820D01*
X110893537Y-126772506D01*
X110814185Y-126675815D01*
X110717494Y-126596463D01*
X110607180Y-126537498D01*
X110487482Y-126501188D01*
X110363000Y-126488928D01*
X108839000Y-126488928D01*
X108714518Y-126501188D01*
X108594820Y-126537498D01*
X108484506Y-126596463D01*
X108387815Y-126675815D01*
X108308463Y-126772506D01*
X108249498Y-126882820D01*
X108213188Y-127002518D01*
X108200928Y-127127000D01*
X88141072Y-127127000D01*
X88128812Y-127002518D01*
X88092502Y-126882820D01*
X88033537Y-126772506D01*
X87954185Y-126675815D01*
X87857494Y-126596463D01*
X87747180Y-126537498D01*
X87627482Y-126501188D01*
X87503000Y-126488928D01*
X86923730Y-126488928D01*
X84855000Y-124420199D01*
X84855000Y-124358061D01*
X84815226Y-124158102D01*
X84737205Y-123969744D01*
X84623937Y-123800226D01*
X84479774Y-123656063D01*
X84310256Y-123542795D01*
X84121898Y-123464774D01*
X83921939Y-123425000D01*
X83718061Y-123425000D01*
X83518102Y-123464774D01*
X83329744Y-123542795D01*
X83160226Y-123656063D01*
X83016063Y-123800226D01*
X82902795Y-123969744D01*
X82824774Y-124158102D01*
X82785000Y-124358061D01*
X80137000Y-124358061D01*
X80137000Y-122885565D01*
X86844040Y-122885565D01*
X86911020Y-123125656D01*
X87160048Y-123242756D01*
X87427135Y-123309023D01*
X87702017Y-123321910D01*
X87974133Y-123280922D01*
X88233023Y-123187636D01*
X88348980Y-123125656D01*
X88415960Y-122885565D01*
X87630000Y-122099605D01*
X86844040Y-122885565D01*
X80137000Y-122885565D01*
X80137000Y-121992017D01*
X86228090Y-121992017D01*
X86269078Y-122264133D01*
X86362364Y-122523023D01*
X86424344Y-122638980D01*
X86664435Y-122705960D01*
X87450395Y-121920000D01*
X87809605Y-121920000D01*
X88595565Y-122705960D01*
X88835656Y-122638980D01*
X88952756Y-122389952D01*
X89019023Y-122122865D01*
X89031910Y-121847983D01*
X88990922Y-121575867D01*
X88897636Y-121316977D01*
X88835656Y-121201020D01*
X88595565Y-121134040D01*
X87809605Y-121920000D01*
X87450395Y-121920000D01*
X86664435Y-121134040D01*
X86424344Y-121201020D01*
X86307244Y-121450048D01*
X86240977Y-121717135D01*
X86228090Y-121992017D01*
X80137000Y-121992017D01*
X80137000Y-120954435D01*
X86844040Y-120954435D01*
X87630000Y-121740395D01*
X88415960Y-120954435D01*
X88348980Y-120714344D01*
X88099952Y-120597244D01*
X87832865Y-120530977D01*
X87557983Y-120518090D01*
X87285867Y-120559078D01*
X87026977Y-120652364D01*
X86911020Y-120714344D01*
X86844040Y-120954435D01*
X80137000Y-120954435D01*
X80137000Y-118008061D01*
X85325000Y-118008061D01*
X85325000Y-118211939D01*
X85364774Y-118411898D01*
X85442795Y-118600256D01*
X85556063Y-118769774D01*
X85700226Y-118913937D01*
X85869744Y-119027205D01*
X86058102Y-119105226D01*
X86258061Y-119145000D01*
X86320199Y-119145000D01*
X87066200Y-119891002D01*
X87089999Y-119920001D01*
X87205724Y-120014974D01*
X87337753Y-120085546D01*
X87481014Y-120129003D01*
X87592667Y-120140000D01*
X87592676Y-120140000D01*
X87629999Y-120143676D01*
X87667322Y-120140000D01*
X89855199Y-120140000D01*
X91343628Y-121628430D01*
X91313000Y-121782408D01*
X91313000Y-122057592D01*
X91366686Y-122327490D01*
X91471995Y-122581727D01*
X91624880Y-122810535D01*
X91819465Y-123005120D01*
X92048273Y-123158005D01*
X92302510Y-123263314D01*
X92572408Y-123317000D01*
X92847592Y-123317000D01*
X93117490Y-123263314D01*
X93371727Y-123158005D01*
X93600535Y-123005120D01*
X93795120Y-122810535D01*
X93948005Y-122581727D01*
X94053314Y-122327490D01*
X94107000Y-122057592D01*
X94107000Y-121782408D01*
X94053314Y-121512510D01*
X93948005Y-121258273D01*
X93795120Y-121029465D01*
X93600535Y-120834880D01*
X93371727Y-120681995D01*
X93117490Y-120576686D01*
X92847592Y-120523000D01*
X92572408Y-120523000D01*
X92418430Y-120553628D01*
X90733804Y-118869003D01*
X90710001Y-118839999D01*
X90594276Y-118745026D01*
X90462247Y-118674454D01*
X90318986Y-118630997D01*
X90207333Y-118620000D01*
X90207322Y-118620000D01*
X90170000Y-118616324D01*
X90132678Y-118620000D01*
X87944802Y-118620000D01*
X87395000Y-118070199D01*
X87395000Y-118008061D01*
X87355226Y-117808102D01*
X87277205Y-117619744D01*
X87163937Y-117450226D01*
X87019774Y-117306063D01*
X86850256Y-117192795D01*
X86661898Y-117114774D01*
X86461939Y-117075000D01*
X86258061Y-117075000D01*
X86058102Y-117114774D01*
X85869744Y-117192795D01*
X85700226Y-117306063D01*
X85556063Y-117450226D01*
X85442795Y-117619744D01*
X85364774Y-117808102D01*
X85325000Y-118008061D01*
X80137000Y-118008061D01*
X80137000Y-115693628D01*
X80354133Y-115660922D01*
X80613023Y-115567636D01*
X80728980Y-115505656D01*
X80795960Y-115265565D01*
X80137000Y-114606605D01*
X80137000Y-114300000D01*
X80189605Y-114300000D01*
X80975565Y-115085960D01*
X81215656Y-115018980D01*
X81332756Y-114769952D01*
X81399023Y-114502865D01*
X81411910Y-114227983D01*
X81402033Y-114162408D01*
X83693000Y-114162408D01*
X83693000Y-114437592D01*
X83746686Y-114707490D01*
X83851995Y-114961727D01*
X84004880Y-115190535D01*
X84199465Y-115385120D01*
X84428273Y-115538005D01*
X84682510Y-115643314D01*
X84952408Y-115697000D01*
X85227592Y-115697000D01*
X85497490Y-115643314D01*
X85751727Y-115538005D01*
X85980535Y-115385120D01*
X86175120Y-115190535D01*
X86262341Y-115060000D01*
X87315199Y-115060000D01*
X89135000Y-116879803D01*
X89135000Y-116941939D01*
X89174774Y-117141898D01*
X89252795Y-117330256D01*
X89366063Y-117499774D01*
X89510226Y-117643937D01*
X89679744Y-117757205D01*
X89868102Y-117835226D01*
X90068061Y-117875000D01*
X90271939Y-117875000D01*
X90471898Y-117835226D01*
X90660256Y-117757205D01*
X90829774Y-117643937D01*
X90973937Y-117499774D01*
X91087205Y-117330256D01*
X91165226Y-117141898D01*
X91205000Y-116941939D01*
X91205000Y-116738061D01*
X91197909Y-116702408D01*
X110363000Y-116702408D01*
X110363000Y-116977592D01*
X110416686Y-117247490D01*
X110521995Y-117501727D01*
X110674880Y-117730535D01*
X110869465Y-117925120D01*
X111098273Y-118078005D01*
X111352510Y-118183314D01*
X111622408Y-118237000D01*
X111897592Y-118237000D01*
X112167490Y-118183314D01*
X112421727Y-118078005D01*
X112650535Y-117925120D01*
X112770090Y-117805565D01*
X116054040Y-117805565D01*
X116121020Y-118045656D01*
X116370048Y-118162756D01*
X116637135Y-118229023D01*
X116912017Y-118241910D01*
X117184133Y-118200922D01*
X117443023Y-118107636D01*
X117558980Y-118045656D01*
X117625960Y-117805565D01*
X116840000Y-117019605D01*
X116054040Y-117805565D01*
X112770090Y-117805565D01*
X112845120Y-117730535D01*
X112998005Y-117501727D01*
X113103314Y-117247490D01*
X113157000Y-116977592D01*
X113157000Y-116912017D01*
X115438090Y-116912017D01*
X115479078Y-117184133D01*
X115572364Y-117443023D01*
X115634344Y-117558980D01*
X115874435Y-117625960D01*
X116660395Y-116840000D01*
X117019605Y-116840000D01*
X117805565Y-117625960D01*
X118045656Y-117558980D01*
X118162756Y-117309952D01*
X118229023Y-117042865D01*
X118241910Y-116767983D01*
X118200922Y-116495867D01*
X118107636Y-116236977D01*
X118045656Y-116121020D01*
X117805565Y-116054040D01*
X117019605Y-116840000D01*
X116660395Y-116840000D01*
X115874435Y-116054040D01*
X115634344Y-116121020D01*
X115517244Y-116370048D01*
X115450977Y-116637135D01*
X115438090Y-116912017D01*
X113157000Y-116912017D01*
X113157000Y-116702408D01*
X113103314Y-116432510D01*
X112998005Y-116178273D01*
X112845120Y-115949465D01*
X112770090Y-115874435D01*
X116054040Y-115874435D01*
X116840000Y-116660395D01*
X117625960Y-115874435D01*
X117558980Y-115634344D01*
X117309952Y-115517244D01*
X117042865Y-115450977D01*
X116767983Y-115438090D01*
X116495867Y-115479078D01*
X116236977Y-115572364D01*
X116121020Y-115634344D01*
X116054040Y-115874435D01*
X112770090Y-115874435D01*
X112650535Y-115754880D01*
X112520000Y-115667659D01*
X112520000Y-113733711D01*
X112563937Y-113689774D01*
X112677205Y-113520256D01*
X112755226Y-113331898D01*
X112795000Y-113131939D01*
X112795000Y-112928061D01*
X112755226Y-112728102D01*
X112677205Y-112539744D01*
X112563937Y-112370226D01*
X112419774Y-112226063D01*
X112250256Y-112112795D01*
X112061898Y-112034774D01*
X111861939Y-111995000D01*
X111658061Y-111995000D01*
X111458102Y-112034774D01*
X111269744Y-112112795D01*
X111100226Y-112226063D01*
X110956063Y-112370226D01*
X110842795Y-112539744D01*
X110764774Y-112728102D01*
X110725000Y-112928061D01*
X110725000Y-113131939D01*
X110764774Y-113331898D01*
X110842795Y-113520256D01*
X110956063Y-113689774D01*
X111000000Y-113733711D01*
X111000001Y-115667659D01*
X110869465Y-115754880D01*
X110674880Y-115949465D01*
X110521995Y-116178273D01*
X110416686Y-116432510D01*
X110363000Y-116702408D01*
X91197909Y-116702408D01*
X91165226Y-116538102D01*
X91087205Y-116349744D01*
X90973937Y-116180226D01*
X90829774Y-116036063D01*
X90660256Y-115922795D01*
X90471898Y-115844774D01*
X90271939Y-115805000D01*
X90209803Y-115805000D01*
X89670368Y-115265565D01*
X94464040Y-115265565D01*
X94531020Y-115505656D01*
X94780048Y-115622756D01*
X95047135Y-115689023D01*
X95322017Y-115701910D01*
X95594133Y-115660922D01*
X95853023Y-115567636D01*
X95968980Y-115505656D01*
X96035960Y-115265565D01*
X95250000Y-114479605D01*
X94464040Y-115265565D01*
X89670368Y-115265565D01*
X88776819Y-114372017D01*
X93848090Y-114372017D01*
X93889078Y-114644133D01*
X93982364Y-114903023D01*
X94044344Y-115018980D01*
X94284435Y-115085960D01*
X95070395Y-114300000D01*
X95429605Y-114300000D01*
X96215565Y-115085960D01*
X96455656Y-115018980D01*
X96572756Y-114769952D01*
X96639023Y-114502865D01*
X96651910Y-114227983D01*
X96642033Y-114162408D01*
X98933000Y-114162408D01*
X98933000Y-114437592D01*
X98986686Y-114707490D01*
X99091995Y-114961727D01*
X99244880Y-115190535D01*
X99439465Y-115385120D01*
X99668273Y-115538005D01*
X99922510Y-115643314D01*
X100192408Y-115697000D01*
X100467592Y-115697000D01*
X100737490Y-115643314D01*
X100991727Y-115538005D01*
X101220535Y-115385120D01*
X101415120Y-115190535D01*
X101568005Y-114961727D01*
X101673314Y-114707490D01*
X101727000Y-114437592D01*
X101727000Y-114162408D01*
X101673314Y-113892510D01*
X101568005Y-113638273D01*
X101415120Y-113409465D01*
X101220535Y-113214880D01*
X101090000Y-113127659D01*
X101090000Y-111622408D01*
X121793000Y-111622408D01*
X121793000Y-111897592D01*
X121846686Y-112167490D01*
X121951995Y-112421727D01*
X122104880Y-112650535D01*
X122299465Y-112845120D01*
X122528273Y-112998005D01*
X122782510Y-113103314D01*
X123052408Y-113157000D01*
X123327592Y-113157000D01*
X123597490Y-113103314D01*
X123851727Y-112998005D01*
X124080535Y-112845120D01*
X124200090Y-112725565D01*
X127484040Y-112725565D01*
X127551020Y-112965656D01*
X127800048Y-113082756D01*
X128067135Y-113149023D01*
X128342017Y-113161910D01*
X128614133Y-113120922D01*
X128873023Y-113027636D01*
X128988980Y-112965656D01*
X129055960Y-112725565D01*
X128270000Y-111939605D01*
X127484040Y-112725565D01*
X124200090Y-112725565D01*
X124275120Y-112650535D01*
X124428005Y-112421727D01*
X124533314Y-112167490D01*
X124587000Y-111897592D01*
X124587000Y-111832017D01*
X126868090Y-111832017D01*
X126909078Y-112104133D01*
X127002364Y-112363023D01*
X127064344Y-112478980D01*
X127304435Y-112545960D01*
X128090395Y-111760000D01*
X128449605Y-111760000D01*
X129235565Y-112545960D01*
X129475656Y-112478980D01*
X129592756Y-112229952D01*
X129659023Y-111962865D01*
X129671910Y-111687983D01*
X129630922Y-111415867D01*
X129537636Y-111156977D01*
X129475656Y-111041020D01*
X129235565Y-110974040D01*
X128449605Y-111760000D01*
X128090395Y-111760000D01*
X127304435Y-110974040D01*
X127064344Y-111041020D01*
X126947244Y-111290048D01*
X126880977Y-111557135D01*
X126868090Y-111832017D01*
X124587000Y-111832017D01*
X124587000Y-111622408D01*
X124533314Y-111352510D01*
X124428005Y-111098273D01*
X124275120Y-110869465D01*
X124200090Y-110794435D01*
X127484040Y-110794435D01*
X128270000Y-111580395D01*
X129055960Y-110794435D01*
X128988980Y-110554344D01*
X128739952Y-110437244D01*
X128472865Y-110370977D01*
X128197983Y-110358090D01*
X127925867Y-110399078D01*
X127666977Y-110492364D01*
X127551020Y-110554344D01*
X127484040Y-110794435D01*
X124200090Y-110794435D01*
X124080535Y-110674880D01*
X123950000Y-110587659D01*
X123950000Y-103573711D01*
X123993937Y-103529774D01*
X124107205Y-103360256D01*
X124185226Y-103171898D01*
X124225000Y-102971939D01*
X124225000Y-102768061D01*
X124185226Y-102568102D01*
X124107205Y-102379744D01*
X123993937Y-102210226D01*
X123849774Y-102066063D01*
X123680256Y-101952795D01*
X123491898Y-101874774D01*
X123291939Y-101835000D01*
X123088061Y-101835000D01*
X122888102Y-101874774D01*
X122699744Y-101952795D01*
X122530226Y-102066063D01*
X122386063Y-102210226D01*
X122272795Y-102379744D01*
X122194774Y-102568102D01*
X122155000Y-102768061D01*
X122155000Y-102971939D01*
X122194774Y-103171898D01*
X122272795Y-103360256D01*
X122386063Y-103529774D01*
X122430000Y-103573711D01*
X122430001Y-110587659D01*
X122299465Y-110674880D01*
X122104880Y-110869465D01*
X121951995Y-111098273D01*
X121846686Y-111352510D01*
X121793000Y-111622408D01*
X101090000Y-111622408D01*
X101090000Y-94683711D01*
X101133937Y-94639774D01*
X101247205Y-94470256D01*
X101325226Y-94281898D01*
X101365000Y-94081939D01*
X101365000Y-93878061D01*
X101325226Y-93678102D01*
X101247205Y-93489744D01*
X101133937Y-93320226D01*
X100989774Y-93176063D01*
X100820256Y-93062795D01*
X100631898Y-92984774D01*
X100431939Y-92945000D01*
X100228061Y-92945000D01*
X100028102Y-92984774D01*
X99839744Y-93062795D01*
X99670226Y-93176063D01*
X99526063Y-93320226D01*
X99412795Y-93489744D01*
X99334774Y-93678102D01*
X99295000Y-93878061D01*
X99295000Y-94081939D01*
X99334774Y-94281898D01*
X99412795Y-94470256D01*
X99526063Y-94639774D01*
X99570000Y-94683711D01*
X99570001Y-113127658D01*
X99439465Y-113214880D01*
X99244880Y-113409465D01*
X99091995Y-113638273D01*
X98986686Y-113892510D01*
X98933000Y-114162408D01*
X96642033Y-114162408D01*
X96610922Y-113955867D01*
X96517636Y-113696977D01*
X96455656Y-113581020D01*
X96215565Y-113514040D01*
X95429605Y-114300000D01*
X95070395Y-114300000D01*
X94284435Y-113514040D01*
X94044344Y-113581020D01*
X93927244Y-113830048D01*
X93860977Y-114097135D01*
X93848090Y-114372017D01*
X88776819Y-114372017D01*
X88193804Y-113789003D01*
X88170001Y-113759999D01*
X88054276Y-113665026D01*
X87922247Y-113594454D01*
X87778986Y-113550997D01*
X87667333Y-113540000D01*
X87667322Y-113540000D01*
X87630000Y-113536324D01*
X87592678Y-113540000D01*
X86262341Y-113540000D01*
X86175120Y-113409465D01*
X86100090Y-113334435D01*
X94464040Y-113334435D01*
X95250000Y-114120395D01*
X96035960Y-113334435D01*
X95968980Y-113094344D01*
X95719952Y-112977244D01*
X95452865Y-112910977D01*
X95177983Y-112898090D01*
X94905867Y-112939078D01*
X94646977Y-113032364D01*
X94531020Y-113094344D01*
X94464040Y-113334435D01*
X86100090Y-113334435D01*
X85980535Y-113214880D01*
X85751727Y-113061995D01*
X85497490Y-112956686D01*
X85227592Y-112903000D01*
X84952408Y-112903000D01*
X84682510Y-112956686D01*
X84428273Y-113061995D01*
X84199465Y-113214880D01*
X84004880Y-113409465D01*
X83851995Y-113638273D01*
X83746686Y-113892510D01*
X83693000Y-114162408D01*
X81402033Y-114162408D01*
X81370922Y-113955867D01*
X81277636Y-113696977D01*
X81215656Y-113581020D01*
X80975565Y-113514040D01*
X80189605Y-114300000D01*
X80137000Y-114300000D01*
X80137000Y-113993395D01*
X80795960Y-113334435D01*
X80728980Y-113094344D01*
X80479952Y-112977244D01*
X80212865Y-112910977D01*
X80137000Y-112907420D01*
X80137000Y-107645565D01*
X86844040Y-107645565D01*
X86911020Y-107885656D01*
X87160048Y-108002756D01*
X87427135Y-108069023D01*
X87702017Y-108081910D01*
X87974133Y-108040922D01*
X88233023Y-107947636D01*
X88348980Y-107885656D01*
X88415960Y-107645565D01*
X87630000Y-106859605D01*
X86844040Y-107645565D01*
X80137000Y-107645565D01*
X80137000Y-106752017D01*
X86228090Y-106752017D01*
X86269078Y-107024133D01*
X86362364Y-107283023D01*
X86424344Y-107398980D01*
X86664435Y-107465960D01*
X87450395Y-106680000D01*
X87809605Y-106680000D01*
X88595565Y-107465960D01*
X88835656Y-107398980D01*
X88952756Y-107149952D01*
X89019023Y-106882865D01*
X89031910Y-106607983D01*
X88990922Y-106335867D01*
X88897636Y-106076977D01*
X88835656Y-105961020D01*
X88595565Y-105894040D01*
X87809605Y-106680000D01*
X87450395Y-106680000D01*
X86664435Y-105894040D01*
X86424344Y-105961020D01*
X86307244Y-106210048D01*
X86240977Y-106477135D01*
X86228090Y-106752017D01*
X80137000Y-106752017D01*
X80137000Y-105429283D01*
X80221331Y-105485631D01*
X80628075Y-105654110D01*
X81059872Y-105740000D01*
X81500128Y-105740000D01*
X81628651Y-105714435D01*
X86844040Y-105714435D01*
X87630000Y-106500395D01*
X88415960Y-105714435D01*
X88348980Y-105474344D01*
X88099952Y-105357244D01*
X87832865Y-105290977D01*
X87557983Y-105278090D01*
X87285867Y-105319078D01*
X87026977Y-105412364D01*
X86911020Y-105474344D01*
X86844040Y-105714435D01*
X81628651Y-105714435D01*
X81931925Y-105654110D01*
X82338669Y-105485631D01*
X82704729Y-105241038D01*
X83016038Y-104929729D01*
X83260631Y-104563669D01*
X83429110Y-104156925D01*
X83515000Y-103725128D01*
X83515000Y-103284872D01*
X83429110Y-102853075D01*
X83260631Y-102446331D01*
X83016038Y-102080271D01*
X82704729Y-101768962D01*
X82338669Y-101524369D01*
X82275156Y-101498061D01*
X89135000Y-101498061D01*
X89135000Y-101701939D01*
X89174774Y-101901898D01*
X89252795Y-102090256D01*
X89366063Y-102259774D01*
X89510226Y-102403937D01*
X89679744Y-102517205D01*
X89868102Y-102595226D01*
X90068061Y-102635000D01*
X90130199Y-102635000D01*
X91950000Y-104454803D01*
X91950001Y-105507659D01*
X91819465Y-105594880D01*
X91624880Y-105789465D01*
X91471995Y-106018273D01*
X91366686Y-106272510D01*
X91313000Y-106542408D01*
X91313000Y-106817592D01*
X91366686Y-107087490D01*
X91471995Y-107341727D01*
X91624880Y-107570535D01*
X91819465Y-107765120D01*
X92048273Y-107918005D01*
X92302510Y-108023314D01*
X92572408Y-108077000D01*
X92847592Y-108077000D01*
X93117490Y-108023314D01*
X93371727Y-107918005D01*
X93600535Y-107765120D01*
X93795120Y-107570535D01*
X93948005Y-107341727D01*
X94053314Y-107087490D01*
X94107000Y-106817592D01*
X94107000Y-106542408D01*
X94053314Y-106272510D01*
X93948005Y-106018273D01*
X93795120Y-105789465D01*
X93600535Y-105594880D01*
X93470000Y-105507659D01*
X93470000Y-104177322D01*
X93473676Y-104139999D01*
X93470000Y-104102676D01*
X93470000Y-104102667D01*
X93459003Y-103991014D01*
X93415546Y-103847753D01*
X93344974Y-103715724D01*
X93331811Y-103699685D01*
X93273799Y-103628996D01*
X93273795Y-103628992D01*
X93250001Y-103599999D01*
X93221009Y-103576206D01*
X91205000Y-101560199D01*
X91205000Y-101498061D01*
X91165226Y-101298102D01*
X91087205Y-101109744D01*
X90973937Y-100940226D01*
X90829774Y-100796063D01*
X90660256Y-100682795D01*
X90471898Y-100604774D01*
X90271939Y-100565000D01*
X90068061Y-100565000D01*
X89868102Y-100604774D01*
X89679744Y-100682795D01*
X89510226Y-100796063D01*
X89366063Y-100940226D01*
X89252795Y-101109744D01*
X89174774Y-101298102D01*
X89135000Y-101498061D01*
X82275156Y-101498061D01*
X81931925Y-101355890D01*
X81500128Y-101270000D01*
X81059872Y-101270000D01*
X80628075Y-101355890D01*
X80221331Y-101524369D01*
X80137000Y-101580717D01*
X80137000Y-78958072D01*
X83630000Y-78958072D01*
X83754482Y-78945812D01*
X83874180Y-78909502D01*
X83984494Y-78850537D01*
X84081185Y-78771185D01*
X84160537Y-78674494D01*
X84219502Y-78564180D01*
X84255812Y-78444482D01*
X84268072Y-78320000D01*
X84268072Y-76620000D01*
X84255812Y-76495518D01*
X84219502Y-76375820D01*
X84160537Y-76265506D01*
X84106778Y-76200000D01*
X84160537Y-76134494D01*
X84219502Y-76024180D01*
X84255812Y-75904482D01*
X84268072Y-75780000D01*
X84268072Y-74080000D01*
X84255812Y-73955518D01*
X84219502Y-73835820D01*
X84160537Y-73725506D01*
X84106778Y-73660000D01*
X84160537Y-73594494D01*
X84219502Y-73484180D01*
X84255812Y-73364482D01*
X84268072Y-73240000D01*
X84268072Y-71540000D01*
X84255812Y-71415518D01*
X84219502Y-71295820D01*
X84160537Y-71185506D01*
X84081185Y-71088815D01*
X83984494Y-71009463D01*
X83874180Y-70950498D01*
X83754482Y-70914188D01*
X83630000Y-70901928D01*
X80137000Y-70901928D01*
X80137000Y-61087000D01*
X82550000Y-61087000D01*
X82574776Y-61084560D01*
X82598601Y-61077333D01*
X82620557Y-61065597D01*
X82639803Y-61049803D01*
X83909803Y-59779803D01*
X83925597Y-59760557D01*
X83937333Y-59738601D01*
X83944560Y-59714776D01*
X83947000Y-59690000D01*
X83947000Y-59270000D01*
X95031928Y-59270000D01*
X95044188Y-59394482D01*
X95080498Y-59514180D01*
X95139463Y-59624494D01*
X95218815Y-59721185D01*
X95315506Y-59800537D01*
X95425820Y-59859502D01*
X95545518Y-59895812D01*
X95670000Y-59908072D01*
X96234250Y-59905000D01*
X96393000Y-59746250D01*
X96393000Y-58547000D01*
X95193750Y-58547000D01*
X95035000Y-58705750D01*
X95031928Y-59270000D01*
X83947000Y-59270000D01*
X83947000Y-57277000D01*
X95106593Y-57277000D01*
X95080498Y-57325820D01*
G37*
%TD.AperFunction*%
%TD*%
M02*
